<?xml version="1.0" encoding="UTF-8" standalone="no"?>
<!-- Created with Inkscape (http://www.inkscape.org/) -->

<svg
   version="1.1"
   id="svg2"
   xml:space="preserve"
   width="790.84003"
   height="790.84003"
   viewBox="0 0 790.84003 790.84003"
   sodipodi:docname="lion-vector-7.eps"
   xmlns:inkscape="http://www.inkscape.org/namespaces/inkscape"
   xmlns:sodipodi="http://sodipodi.sourceforge.net/DTD/sodipodi-0.dtd"
   xmlns="http://www.w3.org/2000/svg"
   xmlns:svg="http://www.w3.org/2000/svg"><defs
     id="defs6" /><sodipodi:namedview
     id="namedview4"
     pagecolor="#ffffff"
     bordercolor="#666666"
     borderopacity="1.0"
     inkscape:pageshadow="2"
     inkscape:pageopacity="0.0"
     inkscape:pagecheckerboard="0" /><g
     id="g8"
     inkscape:groupmode="layer"
     inkscape:label="ink_ext_XXXXXX"
     transform="matrix(1.3333333,0,0,-1.3333333,0,790.84)"><g
       id="g10"
       transform="scale(0.1)"><path
         d="m 3099.97,3751.05 c 10.23,0 18.55,-8.3 18.55,-18.55 0,-10.24 -8.32,-18.55 -18.55,-18.55 -10.25,0 -18.56,8.31 -18.56,18.55 0,10.25 8.31,18.55 18.56,18.55 M 2878.44,3417.1 c 116.98,195.51 147.52,92.54 159.89,163.66 6.75,38.93 180.25,49.7 263.74,102.27 58.94,37.12 153.52,36.05 31.96,77.3 -72.69,24.68 -203.58,121.26 -346.93,-7.76 -15.46,-13.91 -23.89,-54.06 -25.17,-69.54 -3.09,-37.11 -49.47,-64.94 -47.93,-115.96 1.55,-51.02 -43.29,-102.04 -68.03,-134.51 -24.73,-32.46 7.16,-57.76 32.47,-15.46 m -1028.13,193.26 c 10.26,0 18.55,-8.29 18.55,-18.55 0,-10.24 -8.29,-18.55 -18.55,-18.55 -10.24,0 -18.55,8.31 -18.55,18.55 0,10.26 8.31,18.55 18.55,18.55 m -85.81,-75.76 c 12.19,-42.95 106.32,-72.84 174.97,-55.13 15.15,3.89 8.24,-64.94 -18.04,-92.77 -15.09,-15.98 -3.33,-21.15 7.22,-15.46 8.44,4.56 15.54,11.59 21.5,20.37 3.13,-188.34 -78.36,-317.8 -139.22,-413.29 -55.73,-87.44 -109.9,-163.1 -103.88,-272.41 l -2.85,-10.3 8.5,9.62 c -5.78,104.99 47.09,179.57 108.33,265.93 76.39,107.81 161.84,255.94 148.68,468.54 16.31,66.98 8.67,156.26 8.14,165.25 -0.77,13.14 3.1,53.34 -28.59,58.75 -189.68,32.39 -261.9,-77.23 -301.49,-129.1 -17.78,-23.3 -3.39,-28.51 23.71,-6.18 17.53,14.44 83.2,40.83 93.02,6.18 M 3060.67,2014.39 c 40.73,-37.39 103.29,-95.49 142.77,-132.7 -1.01,-0.52 -2.12,-1.03 -3.13,-1.57 -40.91,36.14 -104.13,93.06 -144.53,129.76 -4.15,-2.88 -9.26,-4.64 -14.85,-4.64 -13.69,0 -24.74,10.15 -24.74,22.68 0,12.51 11.05,22.66 24.74,22.66 13.64,0 24.74,-10.15 24.74,-22.66 0,-5.11 -1.92,-9.75 -5,-13.53 m 41.92,-172.12 c -1.88,-0.53 -3.7,-1.11 -5.6,-1.62 -54.13,51.94 -126.9,122.77 -171.26,166.35 -2.95,-1.14 -6.17,-1.76 -9.56,-1.76 -13.68,0 -24.74,10.15 -24.74,22.68 0,12.51 11.06,22.66 24.74,22.66 13.64,0 24.73,-10.15 24.73,-22.66 0,-6.38 -2.89,-12.1 -7.5,-16.24 45.13,-44.61 116.99,-116.55 169.19,-169.41 m 60.4,218.07 c 41.19,-30.36 102.91,-76.46 137.65,-102.83 -0.54,-0.61 -1.11,-1.2 -1.65,-1.82 -35.96,25.29 -98.87,70.66 -140.03,100.62 -4.38,-3.53 -10.01,-5.73 -16.28,-5.73 -13.66,0 -24.74,10.15 -24.74,22.69 0,12.51 11.08,22.65 24.74,22.65 13.66,0 24.74,-10.14 24.74,-22.65 0,-4.82 -1.66,-9.26 -4.43,-12.93 m 36.2,397.41 c 76.3,-41.93 213.51,-118.71 280.84,-157.32 -1.07,-0.79 -2.15,-1.56 -3.22,-2.46 -69.92,36.41 -208.52,111.15 -283.67,152.17 -4.37,-3.65 -10.15,-5.92 -16.54,-5.92 -13.67,0 -24.74,10.15 -24.74,22.66 0,12.53 11.07,22.69 24.74,22.69 13.66,0 24.73,-10.16 24.73,-22.69 0,-3.26 -0.77,-6.33 -2.14,-9.13 m -74.86,-30.34 c 84.18,-45.34 237.7,-129.6 318.31,-174.86 -0.71,-1.29 -1.4,-2.65 -2.13,-4.01 -82.16,42.09 -236.69,123.86 -320.67,168.87 -4.5,-5.61 -11.71,-9.3 -19.87,-9.3 -13.68,0 -24.74,10.15 -24.74,22.68 0,12.52 11.06,22.66 24.74,22.66 13.65,0 24.73,-10.14 24.73,-22.66 0,-1.16 -0.2,-2.27 -0.37,-3.38 m 75.95,-103.06 c 52.37,-32.75 155.21,-98.78 213.26,-136.73 -0.46,-1.13 -0.91,-2.26 -1.34,-3.41 -59.42,35.76 -164.1,100.42 -215.88,132.83 -4.49,-5.54 -11.62,-9.13 -19.72,-9.13 -13.67,0 -24.74,10.14 -24.74,22.65 0,12.54 11.07,22.69 24.74,22.69 13.66,0 24.73,-10.15 24.73,-22.69 0,-2.14 -0.44,-4.22 -1.05,-6.21 m 14.94,-126.37 c 44.77,-25.6 109.19,-62.93 165.97,-96.12 -0.76,-1.97 -1.53,-3.95 -2.28,-5.96 -58.04,32.27 -123.76,69.23 -168.69,94.72 -4.5,-4.43 -10.92,-7.28 -18.07,-7.28 -13.65,0 -24.73,10.15 -24.73,22.67 0,12.53 11.08,22.68 24.73,22.68 13.68,0 24.74,-10.15 24.74,-22.68 0,-2.82 -0.64,-5.51 -1.67,-8.03 m -92.41,-23.31 c 64.04,-38.52 169.6,-103 229.62,-140.35 -0.59,-1.13 -1.16,-2.26 -1.73,-3.38 -61.58,35.32 -168.99,98.64 -232.91,136.73 -4.51,-4.3 -10.81,-7.01 -17.82,-7.01 -13.67,0 -24.74,10.15 -24.74,22.68 0,12.52 11.07,22.67 24.74,22.67 13.65,0 24.73,-10.15 24.73,-22.67 0,-3.08 -0.68,-6.01 -1.89,-8.67 m -538.12,821.91 c -0.34,125.23 -48.86,219.31 -82.67,245.23 -1.38,3.39 6.47,3.13 6.47,3.13 77.24,-64.89 113.3,-232.9 113.3,-232.9 0,0 9.28,0 -37.1,-15.46 m 380.94,-543.13 c 0,12.54 11.05,22.69 24.74,22.69 13.63,0 24.73,-10.15 24.73,-22.69 0,-12.52 -11.1,-22.66 -24.73,-22.66 -13.69,0 -24.74,10.14 -24.74,22.66 m -58.64,0 c 0,-12.52 -11.08,-22.66 -24.74,-22.66 -13.67,0 -24.74,10.14 -24.74,22.66 0,12.54 11.07,22.69 24.74,22.69 13.66,0 24.74,-10.15 24.74,-22.69 m 24.73,117.16 c 0,-12.51 -11.08,-22.65 -24.73,-22.65 -13.67,0 -24.74,10.14 -24.74,22.65 0,12.54 11.07,22.69 24.74,22.69 13.65,0 24.73,-10.15 24.73,-22.69 m -158.41,-13.33 c 0,12.51 11.06,22.66 24.74,22.66 13.64,0 24.73,-10.15 24.73,-22.66 0,-12.54 -11.09,-22.69 -24.73,-22.69 -13.68,0 -24.74,10.15 -24.74,22.69 m -2.06,-103.83 c 0,12.54 11.06,22.69 24.74,22.69 13.64,0 24.74,-10.15 24.74,-22.69 0,-12.52 -11.1,-22.66 -24.74,-22.66 -13.68,0 -24.74,10.14 -24.74,22.66 m -64.85,-9.23 c 13.64,0 24.74,-10.15 24.74,-22.68 0,-12.51 -11.1,-22.66 -24.74,-22.66 -13.68,0 -24.74,10.15 -24.74,22.66 0,12.53 11.06,22.68 24.74,22.68 m 359.28,-99.21 c 13.63,0 24.74,-10.15 24.74,-22.69 0,-12.51 -11.11,-22.66 -24.74,-22.66 -13.69,0 -24.74,10.15 -24.74,22.66 0,12.54 11.05,22.69 24.74,22.69 m -100.04,-90.69 c -13.68,0 -24.74,10.15 -24.74,22.66 0,12.54 11.06,22.68 24.74,22.68 13.64,0 24.74,-10.14 24.74,-22.68 0,-12.51 -11.1,-22.66 -24.74,-22.66 m -142.85,8.24 c 0,12.51 11.06,22.66 24.74,22.66 13.65,0 24.74,-10.15 24.74,-22.66 0,-12.54 -11.09,-22.68 -24.74,-22.68 -13.68,0 -24.74,10.14 -24.74,22.68 m -76.27,59.76 c 13.64,0 24.73,-10.14 24.73,-22.66 0,-12.54 -11.09,-22.68 -24.73,-22.68 -13.68,0 -24.74,10.14 -24.74,22.68 0,12.52 11.06,22.66 24.74,22.66 m -109.94,-37.1 c -13.67,0 -24.74,10.15 -24.74,22.69 0,12.51 11.07,22.65 24.74,22.65 13.65,0 24.73,-10.14 24.73,-22.65 0,-12.54 -11.08,-22.69 -24.73,-22.69 m -905.32,145.57 c 0,-12.53 -11.08,-22.68 -24.73,-22.68 -13.67,0 -24.74,10.15 -24.74,22.68 0,12.52 11.07,22.66 24.74,22.66 13.65,0 24.73,-10.14 24.73,-22.66 m -88.06,-49.45 c -9.51,11.94 -19.49,23.85 -30.02,35.82 4.09,2.74 9.06,4.38 14.5,4.38 13.65,0 24.73,-10.16 24.73,-22.66 0,-7.11 -3.63,-13.39 -9.21,-17.54 m 177.73,-43.02 c 0,-12.54 -11.08,-22.69 -24.73,-22.69 -13.67,0 -24.74,10.15 -24.74,22.69 0,12.51 11.07,22.65 24.74,22.65 13.65,0 24.73,-10.14 24.73,-22.65 m -105.13,-59.64 c -7.91,12.56 -16.3,25.36 -25.09,38.26 4.29,3.31 9.77,5.38 15.82,5.38 13.65,0 24.73,-10.14 24.73,-22.66 0,-9.52 -6.41,-17.61 -15.46,-20.98 m 216.45,-38.8 c 0,12.54 11.07,22.68 24.74,22.68 13.65,0 24.73,-10.14 24.73,-22.68 0,-12.52 -11.08,-22.67 -24.73,-22.67 -13.67,0 -24.74,10.15 -24.74,22.67 m -81.94,-48.29 c 0,12.54 11.07,22.68 24.74,22.68 13.65,0 24.74,-10.14 24.74,-22.68 0,-12.52 -11.09,-22.67 -24.74,-22.67 -13.67,0 -24.74,10.15 -24.74,22.67 m -45.29,-66.46 c -7.4,12.49 -14.97,25.85 -22.83,39.79 3.98,2.51 8.8,4 14.01,4 13.65,0 24.73,-10.14 24.73,-22.67 0,-9.67 -6.62,-17.86 -15.91,-21.12 m 744.32,182.78 c 0,-12.54 -11.07,-22.69 -24.74,-22.69 -13.65,0 -24.73,10.15 -24.73,22.69 0,12.51 11.08,22.65 24.73,22.65 13.67,0 24.74,-10.14 24.74,-22.65 m 465.77,-161.66 c 0,-12.52 -11.08,-22.67 -24.73,-22.67 -13.67,0 -24.74,10.15 -24.74,22.67 0,12.53 11.07,22.67 24.74,22.67 13.65,0 24.73,-10.14 24.73,-22.67 M 2906.99,2138 c 0,-12.54 -11.07,-22.68 -24.74,-22.68 -13.65,0 -24.74,10.14 -24.74,22.68 0,12.52 11.09,22.66 24.74,22.66 13.67,0 24.74,-10.14 24.74,-22.66 m -111,0 c 0,-12.54 -11.08,-22.68 -24.74,-22.68 -13.66,0 -24.73,10.14 -24.73,22.68 0,12.52 11.07,22.66 24.73,22.66 13.66,0 24.74,-10.14 24.74,-22.66 m -123.68,0 c 0,-12.54 -11.08,-22.68 -24.74,-22.68 -13.67,0 -24.74,10.14 -24.74,22.68 0,12.52 11.07,22.66 24.74,22.66 13.66,0 24.74,-10.14 24.74,-22.66 m -584.57,1079.19 h 17.67 c -163.88,-117.5 -269.01,-393.78 -290.73,-492.72 l -43.22,-10.82 c 21.72,98.94 152.4,386.04 316.28,503.54 M 1192.87,4942.15 C 1055.11,4755.61 947.535,4523.8 924.219,4310.73 c 55.66,68.03 204.081,284.48 327.761,346.32 C 1085.01,4205.6 732.246,4001.12 750.801,3651.02 887.113,3838.67 1016.98,3818.25 1016.98,3818.25 880.93,3568.62 485.137,3001.72 575.852,2614.19 c 101,203.04 191.707,117.5 191.707,117.5 -77.895,-188.04 -241.731,-416.32 -299.938,-669.85 -102.43,282.25 -158.406,586.59 -158.406,903.79 0,784.1 341.578,1489.83 883.655,1976.52 m 1829.52,679.18 c -79.09,-36.69 -149.96,-86.63 -184.32,-154.15 0,0 -108.43,71.38 -261.27,126.33 126.96,18.71 256.77,28.54 388.84,28.54 18.97,0 37.85,-0.34 56.75,-0.72 m 2596.19,-2519 c -72.82,133.84 -177.3,277.47 -280.02,419.04 -48.25,85.17 190.99,37.03 168.19,68.89 -101.51,141.9 -430.98,306.12 -478.24,425.69 72.13,195.77 1.8,496.15 -61.11,694 379.45,-434.9 619.92,-994.09 651.18,-1607.62 m -4100.67,779.62 -26.86,-84.13 c -210.26,-95.85 -484.89,-329.69 -526.855,-668.39 l -4.836,9.38 c 14.332,346.32 348.281,647.28 558.551,743.14 m 227.79,376.21 -14.44,-40.2 c -141.2,65.98 -417.43,-32.97 -545.24,-255.6 v 17.51 c 127.81,222.64 418.48,344.27 559.68,278.29 m 113.38,202.02 -38.15,-50.5 c -55.65,80.39 -420.52,179.34 -568.95,-49.48 v 14.43 c 148.43,228.82 551.44,165.94 607.1,85.55 m 510.2,-258.71 c 0,0 -117.5,482.38 46.83,639.04 h 47.99 c -164.33,-156.66 -94.82,-639.04 -94.82,-639.04 m -744.18,952.38 14.84,24.74 c 222.23,109.25 580.11,-51.54 672.88,-224.7 l -21.88,-43.29 c -92.77,173.16 -451.05,342.2 -665.84,243.25 m 515.87,-501.44 -35.56,-38.65 c -117.5,185.52 -473.1,344.77 -797.77,173.15 v 12.37 c 317.46,174.71 715.83,38.65 833.33,-146.87 m 100.49,-2190.77 c 14.44,-81.41 -45.65,-29.35 -46.38,-3.09 -3.09,110.3 -75.24,140.19 -34.01,-5.1 13.16,-46.36 -15.49,-92.64 -24.74,-22.66 -9.24,69.99 -134.85,202.39 -236.54,245.75 -19.77,8.44 -3.6,15.98 14.95,12.89 29.05,-4.84 110.27,-56.69 203.04,-42.27 122.73,19.11 152.07,59.24 164.92,66.49 23.7,13.41 121.62,31.55 62.87,5.67 -134.36,-59.17 -118.53,-176.25 -104.11,-257.68 m 962.78,2266.42 c 17.14,0.86 12.65,-119.43 29.8,-120.49 17.14,-1.05 56.17,117.41 73.02,114.15 43.41,-8.38 84.18,-24.79 120.25,-51.97 13.81,-10.4 -25.92,-117.71 -13.93,-130.2 11.99,-12.49 75.16,68.9 85.82,55.26 170.18,-217.48 216.51,-518.23 321.32,-537.64 65.06,-12.04 124.48,-144.1 167.59,-274.65 5.48,-16.61 -110.81,13.11 -105.75,-3.64 5.06,-16.73 131.46,-79.94 136.15,-96.79 8.15,-29.22 15.15,-56.51 20.91,-80.17 3.93,-16.17 -116.94,60.66 -117.38,44 -0.43,-16.65 126.97,-132.58 114.74,-143.89 -7.67,-7.1 -17.67,-12.93 -29.11,-17.87 -16.09,-7 -152.21,84.47 -169.12,79.82 -16.92,-4.65 84.61,-103.49 67.58,-107.72 -48.72,-12.09 -81.98,-26.73 -44.39,-67.84 137.26,-150.09 276.24,-469.15 218.52,-765.99 -4.84,-24.81 -12.08,-49.82 -21.27,-74.74 -5.96,-16.19 -84.86,102.76 -92.12,87.11 -7.25,-15.65 56.96,-165.94 48.64,-181.04 -19.93,-36.11 -42.9,-71.43 -67.53,-105.15 -10.13,-13.9 -81.73,163.59 -92.42,150.14 -10.7,-13.46 39.45,-217.86 28.26,-230.87 -123.86,-143.86 -256.82,-238.34 -247.8,-202.64 15.46,61.22 -46.39,238.7 -117.5,246.44 -14.31,1.56 -26.96,-2.67 -38.49,-11.25 24.14,-13.81 39.36,-22.77 39.52,-23.42 0.2,-1.05 -16.43,7.26 -42.74,20.96 -12.54,-10.39 -23.69,-26.11 -34.17,-45.42 31.94,-17.93 52.47,-29.73 52.66,-30.52 0.27,-1.26 -21.28,9.34 -54.79,26.51 -9.37,-17.87 -18.2,-38.57 -26.97,-60.92 25.46,-16.67 42.35,-27.92 42.44,-28.55 0.17,-0.97 -17.34,9.23 -43.78,25.14 -10.13,-26.03 -20.23,-54.08 -31.01,-82.35 67.21,-39.25 123.65,-72.7 123.92,-73.94 0.35,-1.86 -57.53,29.79 -126.2,67.98 -3.89,-10.06 -7.82,-20.07 -11.9,-30.06 -4.46,-10.8 -9.4,-21.25 -14.58,-31.52 27.43,-17.08 45.35,-28.48 45.49,-29.16 0.17,-1.06 -18.59,9.36 -47.22,25.78 -13.67,-26.42 -30.12,-51.02 -50.06,-73.43 15.88,-12.07 26.11,-20.01 26.15,-20.44 0.06,-0.71 -10.94,6.78 -27.8,18.62 -25.61,-28.36 -56.87,-53.26 -95.55,-74 21.9,-20.6 36.79,-34.88 36.77,-35.48 -0.02,-0.94 -16.27,13.02 -39.9,33.91 -28.44,-14.92 -60.85,-27.59 -97.72,-37.85 37.49,-37.96 64.88,-66.11 64.82,-67.06 -0.1,-1.49 -30.09,26.75 -70.42,65.44 -23.49,-6.28 -48.59,-11.69 -75.79,-15.97 -11.64,-1.8 -53.7,1.53 -75.51,6.16 -125.74,26.82 -619.7,166.98 -643.3,269.33 -22.83,99.05 -69.76,246.05 58.12,366.1 17,15.97 280.88,79.9 325.19,155.14 44.32,75.23 31.95,218.51 -52.57,136.05 -84.51,-82.46 -118.52,-113.31 -227.78,-20.59 -19.21,16.3 -86.59,47.89 -137.08,44.3 -71.99,-5.15 -53.88,-45.56 -162.86,-69.07 -49.47,-10.65 -113.37,48.45 -199.95,24.77 -68.74,-18.79 -52.58,-101.03 -48.45,-115.46 4.12,-14.44 -60.81,37.11 -37.1,-27.82 23.71,-64.94 69.05,-127.82 112.34,-127.82 43.29,0 116.48,54.62 143.28,17.52 26.79,-37.11 5.14,-68.03 29.88,-95.86 136.05,-108.23 147.62,-223 157.35,-331.9 2.59,-28.86 -186.21,-220.57 -229.49,-278.29 -8.69,-11.57 -15.03,-23.98 -19.12,-35.85 -4.99,1.82 -10.63,2.87 -16.96,2.87 -136.1,0 -102.04,235 -182.51,364.88 -3.2,5.16 -6.42,10.5 -9.66,15.99 -2.74,-0.96 -5.71,-1.55 -8.82,-1.55 -13.67,0 -24.74,10.15 -24.74,22.67 0,7.75 4.27,14.59 10.73,18.67 -19.43,34.49 -40.74,73.02 -66.39,113.76 -2.87,-1.07 -6,-1.7 -9.27,-1.7 -13.67,0 -24.74,10.14 -24.74,22.68 0,6.97 3.51,13.12 8.92,17.28 -14.42,21.18 -30.19,42.7 -47.51,64.4 -4.25,-3.16 -9.61,-5.14 -15.52,-5.14 -13.67,0 -24.74,10.14 -24.74,22.68 0,7.53 4.06,14.18 10.24,18.28 -4.88,5.57 -9.76,11.12 -14.88,16.65 -111.31,120.59 -64.57,294.21 -126.78,445.27 -36.06,87.6 36.08,242.22 31.97,318.48 -4.13,76.28 37.1,309.22 12.36,348.39 35.04,41.22 80.4,123.64 80.4,123.64 l -82.46,-66.25 c 0,0 -16.49,91.03 8.25,132.25 24.73,41.24 332.91,504.02 342.18,599.87 9.28,95.86 278.29,151.52 287.57,157.7 9.28,6.19 123.22,-117.5 134.27,-504.01 57.44,-89.67 150.2,-71.12 150.2,-71.12 0,0 145.34,624.61 287.57,667.9 92.66,28.2 295.52,132.93 480.41,142.13 m 669.87,671.1 7.21,-8.26 c -358.69,49.48 -706.03,-226.36 -940.43,-373.1 v 55.27 c 234.4,146.74 574.53,375.56 933.22,326.09 m 1035.93,-625.68 c -61.89,-8.26 -100.04,-66.96 -100.04,-66.96 0,0 117.5,-65.96 117.5,-125.74 -88.64,103.07 -263.87,111.32 -263.87,111.32 0,0 104.37,109.12 240.95,87.24 1.84,-1.96 3.63,-3.92 5.46,-5.86 m -3.15,-722.49 -55.65,26.8 c 0,0 107.09,191.86 72.13,381.36 76.28,-138.12 -16.48,-408.16 -16.48,-408.16 m -590.79,-114.67 5.46,68.36 c 438.42,-304.98 850.69,-801.3 1058.77,-1364.78 l 2.11,-63.9 C 5174.36,3139.47 4754.52,3631.34 4316.1,3936.32 m 383.61,-2697.61 c 303.03,946.19 -3.09,1800.46 -491.65,2348.46 l 33.56,51.6 c 488.55,-547.99 788.96,-1426.56 485.93,-2372.74 z m -521.36,1069.2 42.07,45.34 c 210.27,-582.19 47.93,-1238.24 -81.93,-1671.129 L 4115.3,655.84 c 129.86,432.9 273.33,1069.88 63.05,1652.07 m 564.87,2080.38 c -16.11,58.81 -54.87,100.42 -113.42,126.19 86.35,-137.2 102.1,-360.75 46.21,-398.56 50.51,157.7 -25.78,306.13 -208.21,442.18 0,0 40.16,70.41 47.55,72.96 107.33,37.13 251.35,-71.92 264.48,-171.78 -32.56,68.97 -89.4,113.25 -165.22,102.4 102.62,-39.65 144.02,-136.82 128.61,-173.39 m -1280.42,434.55 -53.54,32.1 c 228.82,125.13 610.12,275.2 906.97,89.67 v -20.09 c -296.85,185.52 -624.61,23.46 -853.43,-101.68 m 231.97,-209.08 c 154.6,43.29 527.99,34.08 820.58,-375.66 v -21.68 c -292.59,409.74 -665.98,390.35 -820.58,347.06 z m -38.17,-2827.8 25.86,60.23 c 98.95,-250.46 119.59,-833.84 -26.76,-1342.999 l -15.04,-22.05 c 127.81,531.839 114.89,1054.359 15.94,1304.819 m -566.19,-623.02 63.45,33 c 22.85,-269.85 -83.95,-722.678 -158.13,-886.35 -6.13,-0.07 -12.22,-0.211 -18.38,-0.238 71.18,179.769 146.61,601.589 113.06,853.588 m 115.81,182.45 c -43.3,68.02 -157.84,207.16 -188.69,188.61 55.72,-117.5 111.38,-174.71 112.92,-239.64 -43.29,37.11 -129.87,200.99 -214.9,180.89 46.38,-25.24 146.88,-259.74 120.6,-304.57 -38.65,100.49 -98.96,193.25 -205.64,245.82 8.25,-20.61 45.87,-183.48 70.6,-232.95 -37.1,20.61 -86.12,187.22 -203.62,173.31 0,0 46.96,-185.67 46.96,-239.26 -24.73,24.74 -3.61,55.16 -152.03,232.42 -20.1,-27.83 29.38,-284.99 -7.73,-350.95 4.12,49.47 -116.46,370.01 -145.33,337.04 -28.86,-32.98 0,-333.96 -86.58,-424.661 24.73,70.082 -12.37,452.481 -27.83,449.391 -15.46,-3.09 -52.57,-204.08 -102.04,-241.19 12.37,37.11 44.84,267.47 -3.09,259.75 -23.25,-3.75 -41.74,-233.46 -146.88,-269.02 43.29,40.2 94.31,272.11 66.48,293.76 -27.82,21.64 -108.22,-179.35 -173.16,-210.27 15.46,27.82 73.19,166.97 85.56,257.69 -68.03,-20.64 -115.44,-84.53 -138.12,-126.78 2.06,80.39 127.81,207.17 98.95,233.96 -28.86,26.81 -103.07,-51.53 -131.93,-61.84 32.98,78.34 130.9,160.66 149.45,187.48 0.14,0.2 0.23,0.41 0.38,0.61 9.58,2.19 22.18,10.77 37.76,28.35 63.9,72.16 156.67,218.51 276.23,214.4 119.56,-4.13 383.41,-115.45 531.84,-169.05 64.15,-23.17 108.99,-19.35 129.13,-5.4 3.5,-4.36 7.48,-8.49 12.02,-12.11 30.98,-24.74 236.61,-173.17 233.52,-269.02 -43.22,38.82 -105.14,125.23 -168.53,117.5 21.65,-68.02 160.8,-200.98 123.7,-244.27 m -2025.36,-315.4 -32.72,27.83 c -90.71,538.02 119.82,1388.86 283.19,1708.91 l 27.31,-76.28 C 1295.27,2370.43 1090.17,1568.01 1180.86,1029.99 m 533.49,-407.01 c -211.59,371.372 -231.89,1231.85 -119.14,1568.61 l 57.2,-76.27 c -113.23,-338.2 -109.95,-1148.218 103.4,-1514.242 -13.92,7.121 -27.7,14.512 -41.46,21.902 M 2311.84,390.719 C 2165.25,559.73 2043.57,872.82 1999.59,1136.67 l 64.59,-53.08 c 44,-264.012 141.69,-542.012 281.75,-701.211 -11.37,2.73 -22.76,5.461 -34.09,8.34 m 2477,4505.011 c -77.34,-29.4 -144.42,-86.49 -178.81,-77.89 -49.47,12.37 -204.08,111.31 -204.08,111.31 0,0 64.42,79.37 171.61,83.49 -82.98,115.92 -651.74,189.22 -529.3,378.57 274.6,-123.05 524.65,-291.39 740.58,-495.48 m -1489.22,705.38 c 108.06,-13.61 214.08,-33.82 317.72,-60.05 -217.81,-25.42 -365.77,-86.24 -365.77,-86.24 -24.04,47.22 9.68,95.64 48.05,146.29 m -922.12,-44.8 c 25.46,-76.95 38.61,-169.52 38.61,-169.52 l -250.93,111.92 c 69.59,22.04 140.39,41.29 212.32,57.6 M 775.852,1463.65 C 704.781,2189.82 1227.4,3043.14 1431.33,3290.33 L 1447.1,3210 C 1244.85,2964.84 732.09,2160.47 792.992,1438.91 c -5.762,8.22 -11.465,16.49 -17.14,24.74 m 4286.808,3599 c -560.15,560.13 -1304.88,868.61 -2097.02,868.61 -792.15,0 -1536.89,-308.48 -2097.011,-868.61 C 308.492,4502.51 0,3757.78 0,2965.63 0,2173.49 308.496,1428.75 868.629,868.621 1428.75,308.48 2173.49,0 2965.64,0 c 792.14,0 1536.87,308.48 2097.02,868.621 560.13,560.129 868.59,1304.869 868.59,2097.009 0,792.14 -308.46,1536.88 -868.59,2097.02"
         style="fill:#231f20;fill-opacity:1;fill-rule:nonzero;stroke:none"
         id="path12" /></g></g></svg>
