<svg id="svg" version="1.1" xmlns="http://www.w3.org/2000/svg" xmlns:xlink="http://www.w3.org/1999/xlink" width="400" height="231.864406779661" viewBox="0, 0, 400,231.864406779661"><g id="svgg"><path id="path0" d="M0.000 22.493 L 0.000 44.986 11.811 44.986 C 18.790 44.986,23.861 44.894,24.207 44.763 L 24.792 44.541 24.860 34.919 C 24.913 27.406,24.994 25.232,25.229 24.997 C 25.474 24.752,36.980 24.685,87.120 24.636 C 132.058 24.593,148.794 24.507,149.021 24.318 C 149.351 24.044,149.499 2.773,149.184 0.870 L 149.041 0.000 74.520 0.000 L 0.000 0.000 0.000 22.493 M71.884 52.189 C 71.055 52.304,68.759 52.549,66.783 52.734 C 64.570 52.941,62.609 53.261,61.681 53.567 C 60.852 53.841,59.499 54.163,58.675 54.285 C 57.850 54.406,56.940 54.659,56.652 54.848 C 56.364 55.036,55.578 55.304,54.905 55.443 C 54.232 55.582,53.303 55.939,52.841 56.237 C 52.378 56.536,51.625 56.850,51.167 56.936 C 50.708 57.022,50.106 57.289,49.829 57.530 C 49.551 57.771,48.980 58.063,48.560 58.179 C 48.140 58.295,47.441 58.661,47.007 58.992 C 46.572 59.323,46.040 59.594,45.823 59.594 C 45.606 59.594,45.176 59.846,44.869 60.154 C 44.561 60.461,43.888 60.950,43.372 61.240 C 42.857 61.529,42.435 61.835,42.435 61.919 C 42.435 62.002,42.182 62.186,41.873 62.326 C 41.302 62.587,41.109 62.732,39.216 64.318 C 36.911 66.251,35.100 67.850,34.435 68.539 C 33.374 69.640,31.413 71.879,30.491 73.043 C 30.037 73.617,29.455 74.348,29.198 74.667 C 28.557 75.460,27.130 77.689,27.130 77.896 C 27.130 77.988,26.873 78.306,26.557 78.602 C 26.242 78.898,25.863 79.517,25.715 79.976 C 25.567 80.436,25.252 80.997,25.016 81.224 C 24.779 81.451,24.520 81.920,24.440 82.267 C 24.360 82.614,24.036 83.283,23.720 83.753 C 23.404 84.224,23.045 85.057,22.922 85.605 C 22.799 86.153,22.559 86.760,22.390 86.953 C 22.221 87.146,21.911 87.930,21.700 88.696 C 21.489 89.461,21.121 90.452,20.883 90.899 C 20.644 91.345,20.374 92.336,20.283 93.101 C 20.192 93.867,19.929 94.916,19.697 95.432 C 19.282 96.359,19.023 98.003,18.557 102.675 C 17.933 108.928,18.682 121.923,19.810 124.406 C 19.984 124.788,20.202 125.780,20.294 126.609 C 20.385 127.438,20.657 128.504,20.898 128.978 C 21.139 129.452,21.482 130.468,21.661 131.235 C 21.839 132.002,22.204 132.982,22.471 133.414 C 22.738 133.846,22.957 134.365,22.957 134.567 C 22.957 134.900,24.147 137.463,24.969 138.899 C 25.151 139.217,25.461 139.837,25.657 140.275 C 25.853 140.713,26.265 141.402,26.572 141.804 C 26.879 142.207,27.130 142.710,27.130 142.923 C 27.130 143.135,27.348 143.490,27.613 143.712 C 27.878 143.934,28.298 144.481,28.545 144.928 C 28.792 145.374,29.358 146.209,29.803 146.783 C 30.248 147.357,30.798 148.087,31.024 148.406 C 32.525 150.518,38.738 156.578,40.296 157.449 C 41.556 158.153,43.362 159.377,43.362 159.526 C 43.362 159.610,43.798 159.871,44.331 160.106 C 44.864 160.341,45.661 160.779,46.103 161.078 C 46.544 161.378,47.092 161.623,47.320 161.623 C 47.548 161.623,47.875 161.763,48.046 161.934 C 48.513 162.401,49.305 162.783,49.807 162.783 C 50.053 162.783,50.612 163.026,51.050 163.323 C 51.488 163.620,52.331 163.985,52.924 164.134 C 53.517 164.284,54.348 164.605,54.769 164.849 C 55.191 165.092,56.162 165.411,56.928 165.558 C 57.693 165.704,58.841 166.023,59.478 166.266 C 60.116 166.509,61.525 166.821,62.609 166.959 C 63.693 167.098,64.997 167.358,65.507 167.538 C 67.164 168.121,77.658 168.877,84.638 168.918 C 88.700 168.941,96.600 168.110,98.073 167.504 C 98.511 167.323,99.800 167.079,100.936 166.962 C 102.102 166.841,103.250 166.586,103.570 166.376 C 103.882 166.171,105.024 165.810,106.106 165.574 C 107.189 165.337,108.310 164.990,108.598 164.801 C 108.885 164.613,109.720 164.334,110.452 164.182 C 111.185 164.030,112.224 163.654,112.762 163.347 C 113.299 163.040,114.018 162.787,114.359 162.785 C 114.700 162.784,115.274 162.543,115.634 162.251 C 115.995 161.959,116.577 161.539,116.928 161.318 L 117.565 160.917 117.565 148.516 L 117.565 136.116 116.666 136.116 C 116.150 136.116,115.644 136.264,115.478 136.464 C 115.319 136.655,115.061 136.812,114.903 136.812 C 114.745 136.812,114.029 137.125,113.312 137.507 C 112.595 137.890,111.837 138.203,111.627 138.203 C 111.417 138.203,110.659 138.501,109.942 138.864 C 109.225 139.228,108.165 139.597,107.587 139.683 C 107.009 139.769,106.224 140.029,105.842 140.261 C 105.461 140.493,104.212 140.867,103.067 141.092 C 101.922 141.317,100.635 141.645,100.207 141.822 C 99.778 141.998,97.848 142.305,95.917 142.505 C 93.986 142.704,91.780 142.957,91.014 143.066 C 89.109 143.339,81.484 143.354,80.080 143.088 C 79.452 142.969,77.511 142.706,75.768 142.504 C 73.833 142.279,72.168 141.952,71.495 141.664 C 70.889 141.404,69.868 141.080,69.225 140.944 C 68.583 140.807,67.589 140.448,67.016 140.145 C 66.443 139.842,65.843 139.594,65.681 139.594 C 65.519 139.594,64.955 139.281,64.427 138.899 C 63.899 138.516,63.367 138.203,63.245 138.203 C 62.933 138.203,60.915 136.577,58.923 134.720 C 58.031 133.888,55.993 131.221,55.445 130.168 C 54.064 127.513,53.151 125.374,52.985 124.406 C 52.897 123.896,52.570 122.717,52.258 121.786 C 51.830 120.511,51.706 119.711,51.758 118.540 L 51.826 116.986 90.760 116.927 C 119.068 116.884,129.779 116.797,130.006 116.609 C 130.743 115.997,130.332 99.285,129.526 97.084 C 129.331 96.551,129.071 95.164,128.948 94.000 C 128.825 92.824,128.519 91.434,128.260 90.870 C 128.004 90.312,127.688 89.257,127.558 88.527 C 127.428 87.797,127.160 86.952,126.962 86.649 C 126.764 86.347,126.444 85.484,126.251 84.731 C 126.057 83.978,125.698 83.085,125.451 82.746 C 125.205 82.407,124.882 81.650,124.735 81.065 C 124.587 80.479,124.388 80.000,124.293 80.000 C 124.197 80.000,123.837 79.400,123.494 78.667 C 122.527 76.604,120.815 73.792,119.934 72.821 C 119.715 72.579,119.171 71.843,118.725 71.185 C 117.568 69.480,114.962 66.658,112.582 64.533 C 111.770 63.808,108.319 61.249,107.773 60.967 C 107.483 60.818,107.038 60.512,106.783 60.288 C 106.528 60.063,106.058 59.801,105.739 59.705 C 105.420 59.609,104.868 59.287,104.511 58.989 C 104.155 58.691,103.462 58.339,102.973 58.207 C 102.484 58.076,101.954 57.813,101.797 57.623 C 101.640 57.434,101.081 57.163,100.555 57.021 C 100.029 56.880,99.322 56.567,98.985 56.327 C 98.647 56.086,97.670 55.727,96.813 55.528 C 95.956 55.329,95.028 55.018,94.750 54.836 C 94.473 54.654,93.519 54.401,92.630 54.273 C 91.741 54.146,90.396 53.822,89.640 53.555 C 87.268 52.715,74.941 51.767,71.884 52.189 M180.446 53.119 C 179.639 53.223,178.648 53.410,178.243 53.533 C 177.838 53.657,176.829 53.866,176.000 53.999 C 175.171 54.131,174.075 54.306,173.565 54.387 C 173.055 54.468,172.220 54.724,171.710 54.956 C 171.200 55.187,170.261 55.454,169.623 55.549 C 168.986 55.644,168.099 55.960,167.652 56.250 C 167.206 56.540,166.402 56.892,165.865 57.032 C 165.328 57.173,164.823 57.395,164.742 57.526 C 164.661 57.657,164.057 58.019,163.399 58.331 C 161.418 59.270,160.154 59.998,159.896 60.347 C 159.762 60.529,159.391 60.815,159.072 60.983 C 157.609 61.754,154.436 64.865,152.510 67.419 C 152.102 67.960,151.530 68.711,151.238 69.088 C 150.947 69.465,150.593 70.118,150.452 70.539 C 150.311 70.960,150.054 71.468,149.882 71.668 C 149.710 71.869,149.369 72.615,149.124 73.327 C 148.879 74.038,148.512 74.875,148.309 75.185 C 148.105 75.496,147.830 76.616,147.697 77.675 C 147.564 78.733,147.304 80.181,147.119 80.892 C 146.668 82.624,146.677 87.063,147.135 88.831 C 147.330 89.580,147.586 90.965,147.706 91.908 C 147.825 92.851,148.125 93.975,148.371 94.406 C 148.617 94.836,148.994 95.736,149.210 96.406 C 149.426 97.075,149.686 97.623,149.788 97.623 C 149.889 97.623,150.110 97.962,150.278 98.377 C 151.236 100.744,156.325 106.552,159.137 108.486 C 159.739 108.901,160.232 109.320,160.232 109.417 C 160.232 109.515,160.597 109.769,161.043 109.982 C 161.490 110.195,161.855 110.464,161.855 110.580 C 161.855 110.696,162.259 110.952,162.752 111.149 C 163.245 111.346,163.798 111.657,163.981 111.840 C 164.163 112.022,164.673 112.357,165.113 112.584 C 165.553 112.811,166.226 113.230,166.609 113.515 C 166.991 113.800,167.565 114.111,167.884 114.207 C 168.203 114.303,168.516 114.452,168.580 114.539 C 168.643 114.625,170.549 115.614,172.814 116.737 C 175.079 117.859,176.988 118.867,177.056 118.977 C 177.124 119.086,177.617 119.294,178.153 119.438 C 178.688 119.582,179.388 119.884,179.708 120.108 C 180.028 120.332,180.707 120.650,181.217 120.814 C 181.728 120.978,182.508 121.358,182.952 121.658 C 183.396 121.958,183.918 122.205,184.112 122.207 C 184.305 122.209,184.923 122.522,185.484 122.903 C 186.045 123.283,186.677 123.594,186.888 123.594 C 187.099 123.594,187.626 123.855,188.058 124.174 C 188.490 124.493,188.954 124.754,189.089 124.755 C 189.223 124.755,189.803 125.075,190.377 125.465 C 190.951 125.855,191.655 126.269,191.942 126.385 C 192.229 126.502,192.464 126.702,192.464 126.830 C 192.464 126.958,192.876 127.273,193.380 127.531 C 199.229 130.514,200.302 137.616,195.521 141.701 C 194.552 142.529,191.956 143.572,190.102 143.879 C 189.042 144.055,187.600 144.322,186.899 144.473 C 185.423 144.791,179.029 144.632,177.434 144.238 C 176.883 144.102,175.318 143.900,173.956 143.789 C 172.497 143.670,170.906 143.383,170.087 143.091 C 169.322 142.818,167.924 142.486,166.980 142.353 C 166.037 142.220,165.045 141.973,164.777 141.804 C 164.509 141.635,163.664 141.322,162.899 141.107 C 162.133 140.893,161.181 140.528,160.782 140.297 C 160.384 140.065,159.705 139.808,159.275 139.726 C 158.845 139.644,157.971 139.326,157.333 139.020 C 154.229 137.531,152.643 136.812,152.461 136.812 C 152.352 136.812,152.036 136.599,151.760 136.340 C 151.349 135.954,151.147 135.911,150.642 136.103 L 150.025 136.338 150.085 148.687 L 150.145 161.037 151.301 161.794 C 151.937 162.210,152.824 162.615,153.272 162.694 C 153.720 162.773,154.572 163.077,155.165 163.369 C 155.758 163.661,156.854 164.025,157.600 164.179 C 158.346 164.333,159.250 164.609,159.608 164.793 C 159.966 164.977,161.115 165.315,162.160 165.543 C 163.205 165.771,164.414 166.141,164.847 166.365 C 165.326 166.613,166.567 166.853,168.016 166.979 C 169.326 167.093,170.678 167.292,171.020 167.422 C 174.575 168.774,195.931 168.791,198.447 167.445 C 198.685 167.317,199.877 167.111,201.096 166.986 C 202.404 166.852,203.679 166.576,204.207 166.313 C 204.699 166.067,205.811 165.692,206.677 165.479 C 207.544 165.265,208.638 164.885,209.109 164.632 C 209.579 164.380,210.122 164.172,210.315 164.170 C 210.509 164.168,211.188 163.857,211.826 163.478 C 212.464 163.100,213.160 162.789,213.374 162.787 C 213.587 162.784,214.056 162.544,214.417 162.252 C 214.778 161.960,215.375 161.590,215.744 161.430 C 216.468 161.116,217.344 160.491,218.483 159.478 C 218.877 159.128,219.262 158.840,219.339 158.840 C 219.415 158.839,219.791 158.548,220.174 158.193 C 220.557 157.837,221.090 157.394,221.360 157.208 C 221.770 156.925,222.661 155.920,224.638 153.513 C 224.798 153.319,225.278 152.742,225.705 152.232 C 226.132 151.722,226.547 151.037,226.626 150.709 C 226.705 150.382,226.984 149.867,227.246 149.565 C 227.508 149.263,227.788 148.748,227.867 148.421 C 227.946 148.094,228.253 147.357,228.548 146.783 C 228.843 146.209,229.203 145.165,229.348 144.464 C 229.493 143.762,229.767 142.943,229.957 142.642 C 230.907 141.144,230.979 128.514,230.046 126.934 C 229.783 126.487,229.499 125.683,229.417 125.148 C 229.281 124.269,228.194 121.612,227.359 120.116 C 227.180 119.797,226.810 119.093,226.535 118.551 C 226.261 118.009,225.966 117.565,225.880 117.565 C 225.794 117.565,225.528 117.226,225.289 116.812 C 224.402 115.273,219.401 109.913,218.853 109.913 C 218.760 109.913,218.498 109.715,218.270 109.472 C 217.632 108.794,215.349 107.130,215.057 107.130 C 214.914 107.130,214.600 106.914,214.361 106.649 C 214.121 106.384,213.488 105.968,212.954 105.725 C 212.420 105.481,211.948 105.188,211.905 105.073 C 211.861 104.958,211.444 104.669,210.977 104.432 C 205.864 101.832,202.475 100.174,202.276 100.174 C 202.143 100.174,201.767 99.964,201.441 99.708 C 201.116 99.452,200.502 99.178,200.077 99.099 C 199.652 99.019,198.770 98.655,198.117 98.289 C 197.463 97.923,196.784 97.623,196.608 97.623 C 196.431 97.623,195.817 97.377,195.245 97.075 C 194.672 96.774,193.786 96.394,193.275 96.231 C 192.765 96.069,192.087 95.756,191.768 95.536 C 191.449 95.317,190.771 95.003,190.261 94.839 C 189.751 94.675,189.084 94.348,188.780 94.111 C 188.476 93.875,188.055 93.681,187.845 93.681 C 187.635 93.681,186.896 93.316,186.203 92.870 C 185.510 92.423,184.809 92.058,184.646 92.058 C 184.482 92.058,184.348 91.980,184.347 91.884 C 184.347 91.788,183.904 91.429,183.362 91.086 C 180.375 89.192,179.268 86.711,180.049 83.659 C 180.473 82.001,181.883 80.000,182.627 80.000 C 182.769 80.000,183.070 79.796,183.296 79.546 C 183.522 79.296,184.190 78.937,184.781 78.750 C 185.372 78.562,186.471 78.192,187.224 77.929 C 189.789 77.031,201.249 77.370,203.173 78.400 C 203.403 78.523,204.505 78.708,205.622 78.811 C 206.739 78.915,207.994 79.176,208.412 79.393 C 208.829 79.609,209.764 79.896,210.489 80.030 C 211.214 80.164,212.281 80.512,212.860 80.804 C 213.439 81.096,214.353 81.409,214.892 81.498 C 215.430 81.588,216.120 81.858,216.425 82.098 C 216.730 82.338,217.405 82.630,217.925 82.746 C 218.445 82.863,219.144 83.174,219.479 83.437 C 219.813 83.700,220.472 84.039,220.942 84.189 C 221.412 84.340,222.006 84.637,222.261 84.850 C 223.661 86.018,225.129 86.107,225.170 85.027 C 225.256 82.724,225.125 60.471,225.024 60.206 C 224.946 60.004,224.510 59.769,224.054 59.683 C 223.598 59.598,222.658 59.230,221.966 58.865 C 221.273 58.501,220.492 58.203,220.231 58.203 C 219.969 58.203,219.223 57.954,218.573 57.649 C 217.923 57.344,216.922 57.019,216.348 56.925 C 215.774 56.832,214.835 56.523,214.261 56.240 C 213.687 55.956,212.342 55.604,211.271 55.457 C 210.201 55.310,209.203 55.089,209.052 54.964 C 208.902 54.839,208.004 54.624,207.056 54.484 C 206.109 54.345,204.186 54.029,202.783 53.783 C 201.380 53.537,199.293 53.231,198.145 53.104 C 195.688 52.832,182.569 52.843,180.446 53.119 M250.957 53.223 L 250.435 53.592 250.435 110.732 L 250.435 167.873 250.984 168.233 C 251.758 168.740,280.972 168.657,281.588 168.146 C 282.179 167.654,282.179 53.795,281.588 53.304 C 280.963 52.785,251.686 52.708,250.957 53.223 M349.085 53.101 C 348.311 53.208,347.111 53.455,346.419 53.650 C 345.726 53.844,344.250 54.109,343.138 54.239 C 342.027 54.368,340.670 54.675,340.124 54.922 C 339.577 55.168,338.557 55.443,337.855 55.533 C 337.154 55.623,336.121 55.949,335.560 56.257 C 334.999 56.565,334.141 56.881,333.653 56.959 C 333.165 57.037,332.430 57.349,332.019 57.652 C 331.608 57.955,331.046 58.203,330.770 58.203 C 330.494 58.203,329.862 58.478,329.366 58.815 C 328.870 59.151,328.151 59.531,327.768 59.659 C 327.386 59.786,326.864 60.073,326.609 60.296 C 326.354 60.519,325.701 60.924,325.159 61.196 C 324.617 61.468,324.174 61.786,324.174 61.902 C 324.174 62.018,323.940 62.188,323.655 62.278 C 323.101 62.454,322.372 63.008,319.567 65.381 C 317.180 67.401,315.564 69.140,312.772 72.696 C 312.171 73.461,311.454 74.348,311.179 74.667 C 310.904 74.986,310.521 75.638,310.329 76.116 C 310.136 76.594,309.888 76.986,309.778 76.986 C 309.667 76.986,309.371 77.438,309.119 77.991 C 308.867 78.544,308.506 79.125,308.316 79.282 C 308.127 79.440,307.907 79.861,307.829 80.219 C 307.750 80.577,307.430 81.217,307.118 81.640 C 306.806 82.063,306.549 82.571,306.547 82.770 C 306.544 82.968,306.239 83.681,305.868 84.353 C 305.497 85.026,305.121 85.909,305.032 86.315 C 304.942 86.722,304.678 87.423,304.443 87.875 C 304.209 88.326,303.852 89.411,303.650 90.285 C 303.448 91.160,303.128 92.111,302.939 92.400 C 302.750 92.688,302.497 93.789,302.376 94.846 C 302.256 95.902,301.920 97.664,301.629 98.760 C 300.906 101.490,300.821 119.522,301.518 122.319 C 301.740 123.212,302.070 124.967,302.250 126.219 C 302.430 127.471,302.783 129.036,303.035 129.697 C 303.287 130.358,303.619 131.472,303.774 132.174 C 303.929 132.875,304.243 133.762,304.472 134.145 C 304.701 134.528,304.964 135.258,305.056 135.768 C 305.148 136.278,305.413 136.966,305.645 137.296 C 305.876 137.627,306.287 138.487,306.557 139.209 C 306.827 139.931,307.136 140.522,307.245 140.522 C 307.353 140.522,307.509 140.830,307.592 141.207 C 307.675 141.583,307.929 142.131,308.158 142.424 C 308.387 142.717,308.801 143.404,309.079 143.952 C 309.357 144.499,309.789 145.151,310.039 145.401 C 310.288 145.651,310.493 145.975,310.493 146.122 C 310.493 146.434,311.764 148.226,312.522 148.982 C 312.809 149.268,313.043 149.583,313.043 149.682 C 313.043 150.359,321.184 158.463,322.275 158.871 C 322.490 158.952,322.865 159.239,323.108 159.509 C 323.351 159.779,323.667 160.000,323.809 160.000 C 323.952 160.000,324.431 160.298,324.875 160.663 C 325.318 161.027,325.927 161.403,326.227 161.498 C 326.527 161.592,327.141 161.920,327.593 162.226 C 328.044 162.532,328.528 162.785,328.670 162.787 C 328.812 162.789,329.387 163.102,329.948 163.482 C 330.509 163.863,331.146 164.174,331.363 164.174 C 331.580 164.174,332.247 164.435,332.846 164.753 C 333.446 165.072,334.426 165.451,335.026 165.596 C 335.625 165.741,336.443 166.055,336.843 166.294 C 337.242 166.533,338.357 166.829,339.320 166.951 C 340.283 167.073,341.697 167.384,342.463 167.642 C 343.228 167.900,345.301 168.263,347.069 168.449 C 348.837 168.635,350.572 168.897,350.925 169.032 C 351.930 169.414,365.134 169.342,367.420 168.942 C 368.441 168.764,370.371 168.551,371.710 168.469 C 374.897 168.275,377.440 167.914,378.380 167.524 C 378.796 167.351,379.996 167.096,381.046 166.956 C 382.097 166.817,383.374 166.513,383.884 166.282 C 384.394 166.050,385.386 165.731,386.087 165.571 C 386.788 165.412,387.675 165.104,388.058 164.886 C 388.441 164.668,389.257 164.363,389.871 164.209 C 390.486 164.054,391.373 163.679,391.842 163.376 C 392.312 163.073,393.045 162.753,393.473 162.664 C 395.006 162.347,395.023 162.183,394.949 148.468 C 394.884 136.509,394.877 136.352,394.405 136.100 C 394.021 135.895,393.829 135.932,393.427 136.290 C 393.152 136.536,392.562 136.875,392.116 137.044 C 391.670 137.213,391.148 137.484,390.957 137.645 C 390.765 137.806,390.087 138.112,389.449 138.326 C 388.812 138.540,388.129 138.857,387.933 139.031 C 387.736 139.204,387.018 139.466,386.337 139.612 C 385.656 139.758,384.773 140.063,384.375 140.290 C 383.978 140.516,382.922 140.832,382.029 140.992 C 381.136 141.151,379.909 141.475,379.302 141.711 C 376.163 142.931,358.801 143.008,356.972 141.809 C 356.666 141.609,355.657 141.287,354.729 141.094 C 353.802 140.901,352.778 140.550,352.455 140.314 C 352.131 140.078,351.520 139.808,351.098 139.716 C 350.676 139.623,349.882 139.245,349.334 138.875 C 348.787 138.505,348.241 138.203,348.123 138.203 C 348.004 138.203,347.662 137.942,347.362 137.623 C 347.063 137.304,346.695 137.043,346.545 137.043 C 346.395 137.043,345.956 136.757,345.570 136.406 C 345.183 136.055,344.287 135.246,343.577 134.609 C 342.868 133.971,341.838 132.844,341.289 132.104 C 340.739 131.364,340.003 130.384,339.652 129.927 C 339.301 129.470,339.014 128.961,339.014 128.798 C 339.014 128.634,338.764 128.202,338.458 127.838 C 338.151 127.474,337.776 126.709,337.624 126.139 C 337.472 125.568,337.209 124.945,337.040 124.754 C 336.870 124.562,336.661 124.093,336.573 123.710 C 336.486 123.328,336.089 121.919,335.691 120.580 L 334.966 118.145 334.976 110.725 L 334.986 103.304 335.725 101.111 C 336.131 99.904,336.464 98.758,336.464 98.563 C 336.464 98.369,336.720 97.686,337.034 97.047 C 337.347 96.407,337.766 95.519,337.965 95.072 C 338.610 93.626,340.586 90.451,341.355 89.623 C 341.926 89.009,344.110 86.827,344.696 86.285 C 344.951 86.049,345.472 85.661,345.855 85.423 C 346.238 85.184,346.753 84.806,347.000 84.582 C 347.247 84.357,347.551 84.174,347.674 84.174 C 347.797 84.174,348.248 83.908,348.674 83.582 C 349.101 83.256,349.789 82.874,350.204 82.733 C 350.618 82.592,351.190 82.296,351.476 82.076 C 351.762 81.856,352.375 81.604,352.839 81.517 C 353.303 81.430,354.222 81.120,354.882 80.829 C 355.541 80.537,356.598 80.224,357.229 80.134 C 357.860 80.044,359.385 79.768,360.616 79.521 C 363.734 78.897,369.906 78.895,373.457 79.519 C 374.856 79.764,376.780 80.033,377.733 80.117 C 378.686 80.201,380.046 80.506,380.756 80.794 C 381.465 81.083,382.614 81.394,383.310 81.486 C 384.006 81.578,384.892 81.850,385.280 82.090 C 385.668 82.330,386.489 82.639,387.104 82.777 C 387.718 82.914,388.550 83.271,388.951 83.569 C 389.353 83.868,390.029 84.177,390.454 84.257 C 390.878 84.336,391.466 84.591,391.760 84.821 C 392.053 85.052,392.719 85.382,393.240 85.554 C 395.003 86.136,394.910 86.883,394.843 72.724 L 394.783 60.174 394.087 59.824 C 393.704 59.632,393.026 59.251,392.580 58.976 C 392.133 58.702,391.323 58.359,390.779 58.214 C 390.235 58.070,389.453 57.757,389.040 57.519 C 388.627 57.282,387.820 57.013,387.246 56.922 C 386.672 56.831,385.786 56.520,385.275 56.230 C 384.739 55.926,383.725 55.638,382.870 55.547 C 382.057 55.461,380.875 55.187,380.243 54.938 C 379.611 54.689,378.189 54.389,377.083 54.271 C 375.977 54.153,374.029 53.825,372.754 53.542 C 370.237 52.984,352.337 52.651,349.085 53.101 M81.365 76.295 C 82.306 76.417,83.198 76.617,83.345 76.739 C 83.493 76.862,84.131 77.074,84.763 77.212 C 86.040 77.490,89.151 78.964,89.791 79.594 C 90.018 79.817,90.330 80.000,90.486 80.000 C 90.842 80.000,95.072 84.379,95.072 84.748 C 95.072 84.898,95.333 85.266,95.652 85.565 C 95.971 85.865,96.232 86.232,96.232 86.382 C 96.232 86.532,96.543 87.114,96.923 87.675 C 97.304 88.236,97.617 88.854,97.619 89.047 C 97.621 89.240,97.840 89.802,98.105 90.297 C 98.370 90.791,98.788 91.985,99.035 92.951 C 99.282 93.917,99.588 94.811,99.713 94.937 C 100.243 95.466,99.940 95.945,98.912 96.204 C 96.796 96.737,53.718 96.553,53.226 96.009 C 52.715 95.445,52.884 94.253,53.679 92.818 C 53.977 92.279,54.296 91.497,54.387 91.079 C 54.478 90.661,54.800 90.024,55.102 89.663 C 55.405 89.303,55.652 88.878,55.652 88.719 C 55.652 88.428,56.717 86.837,57.911 85.345 C 58.502 84.606,60.748 82.360,62.557 80.698 C 62.975 80.314,63.458 80.000,63.630 80.000 C 63.802 80.000,64.066 79.851,64.217 79.670 C 64.680 79.113,68.217 77.490,69.549 77.224 C 70.242 77.086,70.940 76.863,71.101 76.730 C 71.840 76.117,77.986 75.856,81.365 76.295 M124.994 176.569 C 124.785 176.821,124.722 179.329,124.744 186.563 C 124.764 193.598,124.699 196.308,124.503 196.545 C 124.273 196.822,115.095 196.870,62.117 196.870 L 0.000 196.870 0.000 208.928 L 0.000 220.986 74.388 220.986 C 131.937 220.986,148.840 220.923,149.055 220.707 C 149.607 220.155,149.440 176.769,148.885 176.472 C 148.109 176.057,125.343 176.149,124.994 176.569 " stroke="none" fill="#0544eb" fill-rule="evenodd"></path><path id="path1" d="M149.287 12.020 C 149.345 22.082,149.304 24.084,149.033 24.309 C 148.790 24.510,133.363 24.592,87.120 24.636 C 36.980 24.685,25.474 24.752,25.229 24.997 C 24.994 25.232,24.913 27.406,24.860 34.919 L 24.792 44.541 24.207 44.763 C 23.861 44.894,18.790 44.986,11.811 44.986 L 0.000 44.986 0.000 120.928 L 0.000 196.870 62.117 196.870 C 115.095 196.870,124.273 196.822,124.503 196.545 C 124.699 196.308,124.764 193.598,124.744 186.563 C 124.722 179.329,124.785 176.821,124.994 176.569 C 125.343 176.149,148.109 176.057,148.885 176.472 C 149.440 176.769,149.607 220.155,149.055 220.707 C 148.840 220.923,131.937 220.986,74.388 220.986 L 0.000 220.986 0.000 226.435 L 0.000 231.884 200.000 231.884 L 400.000 231.884 400.000 115.942 L 400.000 0.000 274.609 -0.000 L 149.217 -0.000 149.287 12.020 M83.495 52.634 C 86.831 52.938,88.679 53.215,89.640 53.555 C 90.396 53.822,91.741 54.146,92.630 54.273 C 93.519 54.401,94.473 54.654,94.750 54.836 C 95.028 55.018,95.956 55.329,96.813 55.528 C 97.670 55.727,98.647 56.086,98.985 56.327 C 99.322 56.567,100.029 56.880,100.555 57.021 C 101.081 57.163,101.640 57.434,101.797 57.623 C 101.954 57.813,102.484 58.076,102.973 58.207 C 103.462 58.339,104.155 58.691,104.511 58.989 C 104.868 59.287,105.420 59.609,105.739 59.705 C 106.058 59.801,106.528 60.063,106.783 60.288 C 107.038 60.512,107.483 60.818,107.773 60.967 C 108.319 61.249,111.770 63.808,112.582 64.533 C 114.962 66.658,117.568 69.480,118.725 71.185 C 119.171 71.843,119.715 72.579,119.934 72.821 C 120.815 73.792,122.527 76.604,123.494 78.667 C 123.837 79.400,124.197 80.000,124.293 80.000 C 124.388 80.000,124.587 80.479,124.735 81.065 C 124.882 81.650,125.205 82.407,125.451 82.746 C 125.698 83.085,126.057 83.978,126.251 84.731 C 126.444 85.484,126.764 86.347,126.962 86.649 C 127.160 86.952,127.428 87.797,127.558 88.527 C 127.688 89.257,128.004 90.312,128.260 90.870 C 128.519 91.434,128.825 92.824,128.948 94.000 C 129.071 95.164,129.331 96.551,129.526 97.084 C 130.332 99.285,130.743 115.997,130.006 116.609 C 129.779 116.797,119.068 116.884,90.760 116.927 L 51.826 116.986 51.758 118.540 C 51.706 119.711,51.830 120.511,52.258 121.786 C 52.570 122.717,52.897 123.896,52.985 124.406 C 53.151 125.374,54.064 127.513,55.445 130.168 C 55.993 131.221,58.031 133.888,58.923 134.720 C 60.915 136.577,62.933 138.203,63.245 138.203 C 63.367 138.203,63.899 138.516,64.427 138.899 C 64.955 139.281,65.519 139.594,65.681 139.594 C 65.843 139.594,66.443 139.842,67.016 140.145 C 67.589 140.448,68.583 140.807,69.225 140.944 C 69.868 141.080,70.889 141.404,71.495 141.664 C 72.168 141.952,73.833 142.279,75.768 142.504 C 77.511 142.706,79.452 142.969,80.080 143.088 C 81.484 143.354,89.109 143.339,91.014 143.066 C 91.780 142.957,93.986 142.704,95.917 142.505 C 97.848 142.305,99.778 141.998,100.207 141.822 C 100.635 141.645,101.922 141.317,103.067 141.092 C 104.212 140.867,105.461 140.493,105.842 140.261 C 106.224 140.029,107.009 139.769,107.587 139.683 C 108.165 139.597,109.225 139.228,109.942 138.864 C 110.659 138.501,111.417 138.203,111.627 138.203 C 111.837 138.203,112.595 137.890,113.312 137.507 C 114.029 137.125,114.745 136.812,114.903 136.812 C 115.061 136.812,115.319 136.655,115.478 136.464 C 115.644 136.264,116.150 136.116,116.666 136.116 L 117.565 136.116 117.565 148.516 L 117.565 160.917 116.928 161.318 C 116.577 161.539,115.995 161.959,115.634 162.251 C 115.274 162.543,114.700 162.784,114.359 162.785 C 114.018 162.787,113.299 163.040,112.762 163.347 C 112.224 163.654,111.185 164.030,110.452 164.182 C 109.720 164.334,108.885 164.613,108.598 164.801 C 108.310 164.990,107.189 165.337,106.106 165.574 C 105.024 165.810,103.882 166.171,103.570 166.376 C 103.250 166.586,102.102 166.841,100.936 166.962 C 99.800 167.079,98.511 167.323,98.073 167.504 C 96.600 168.110,88.700 168.941,84.638 168.918 C 77.658 168.877,67.164 168.121,65.507 167.538 C 64.997 167.358,63.693 167.098,62.609 166.959 C 61.525 166.821,60.116 166.509,59.478 166.266 C 58.841 166.023,57.693 165.704,56.928 165.558 C 56.162 165.411,55.191 165.092,54.769 164.849 C 54.348 164.605,53.517 164.284,52.924 164.134 C 52.331 163.985,51.488 163.620,51.050 163.323 C 50.612 163.026,50.053 162.783,49.807 162.783 C 49.305 162.783,48.513 162.401,48.046 161.934 C 47.875 161.763,47.548 161.623,47.320 161.623 C 47.092 161.623,46.544 161.378,46.103 161.078 C 45.661 160.779,44.864 160.341,44.331 160.106 C 43.798 159.871,43.362 159.610,43.362 159.526 C 43.362 159.377,41.556 158.153,40.296 157.449 C 38.738 156.578,32.525 150.518,31.024 148.406 C 30.798 148.087,30.248 147.357,29.803 146.783 C 29.358 146.209,28.792 145.374,28.545 144.928 C 28.298 144.481,27.878 143.934,27.613 143.712 C 27.348 143.490,27.130 143.135,27.130 142.923 C 27.130 142.710,26.879 142.207,26.572 141.804 C 26.265 141.402,25.853 140.713,25.657 140.275 C 25.461 139.837,25.151 139.217,24.969 138.899 C 24.147 137.463,22.957 134.900,22.957 134.567 C 22.957 134.365,22.738 133.846,22.471 133.414 C 22.204 132.982,21.839 132.002,21.661 131.235 C 21.482 130.468,21.139 129.452,20.898 128.978 C 20.657 128.504,20.385 127.438,20.294 126.609 C 20.202 125.780,19.984 124.788,19.810 124.406 C 18.682 121.923,17.933 108.928,18.557 102.675 C 19.023 98.003,19.282 96.359,19.697 95.432 C 19.929 94.916,20.192 93.867,20.283 93.101 C 20.374 92.336,20.644 91.345,20.883 90.899 C 21.121 90.452,21.489 89.461,21.700 88.696 C 21.911 87.930,22.221 87.146,22.390 86.953 C 22.559 86.760,22.799 86.153,22.922 85.605 C 23.045 85.057,23.404 84.224,23.720 83.753 C 24.036 83.283,24.360 82.614,24.440 82.267 C 24.520 81.920,24.779 81.451,25.016 81.224 C 25.252 80.997,25.567 80.436,25.715 79.976 C 25.863 79.517,26.242 78.898,26.557 78.602 C 26.873 78.306,27.130 77.988,27.130 77.896 C 27.130 77.689,28.557 75.460,29.198 74.667 C 29.455 74.348,30.037 73.617,30.491 73.043 C 31.413 71.879,33.374 69.640,34.435 68.539 C 35.100 67.850,36.911 66.251,39.216 64.318 C 41.109 62.732,41.302 62.587,41.873 62.326 C 42.182 62.186,42.435 62.002,42.435 61.919 C 42.435 61.835,42.857 61.529,43.372 61.240 C 43.888 60.950,44.561 60.461,44.869 60.154 C 45.176 59.846,45.606 59.594,45.823 59.594 C 46.040 59.594,46.572 59.323,47.007 58.992 C 47.441 58.661,48.140 58.295,48.560 58.179 C 48.980 58.063,49.551 57.771,49.829 57.530 C 50.106 57.289,50.708 57.022,51.167 56.936 C 51.625 56.850,52.378 56.536,52.841 56.237 C 53.303 55.939,54.232 55.582,54.905 55.443 C 55.578 55.304,56.364 55.036,56.652 54.848 C 56.940 54.659,57.850 54.406,58.675 54.285 C 59.499 54.163,60.852 53.841,61.681 53.567 C 62.609 53.261,64.570 52.941,66.783 52.734 C 68.759 52.549,71.055 52.304,71.884 52.189 C 73.745 51.932,77.277 52.068,83.495 52.634 M198.145 53.104 C 199.293 53.231,201.380 53.537,202.783 53.783 C 204.186 54.029,206.109 54.345,207.056 54.484 C 208.004 54.624,208.902 54.839,209.052 54.964 C 209.203 55.089,210.201 55.310,211.271 55.457 C 212.342 55.604,213.687 55.956,214.261 56.240 C 214.835 56.523,215.774 56.832,216.348 56.925 C 216.922 57.019,217.923 57.344,218.573 57.649 C 219.223 57.954,219.969 58.203,220.231 58.203 C 220.492 58.203,221.273 58.501,221.966 58.865 C 222.658 59.230,223.598 59.598,224.054 59.683 C 224.510 59.769,224.946 60.004,225.024 60.206 C 225.125 60.471,225.256 82.724,225.170 85.027 C 225.129 86.107,223.661 86.018,222.261 84.850 C 222.006 84.637,221.412 84.340,220.942 84.189 C 220.472 84.039,219.813 83.700,219.479 83.437 C 219.144 83.174,218.445 82.863,217.925 82.746 C 217.405 82.630,216.730 82.338,216.425 82.098 C 216.120 81.858,215.430 81.588,214.892 81.498 C 214.353 81.409,213.439 81.096,212.860 80.804 C 212.281 80.512,211.214 80.164,210.489 80.030 C 209.764 79.896,208.829 79.609,208.412 79.393 C 207.994 79.176,206.739 78.915,205.622 78.811 C 204.505 78.708,203.403 78.523,203.173 78.400 C 201.249 77.370,189.789 77.031,187.224 77.929 C 186.471 78.192,185.372 78.562,184.781 78.750 C 184.190 78.937,183.522 79.296,183.296 79.546 C 183.070 79.796,182.769 80.000,182.627 80.000 C 181.883 80.000,180.473 82.001,180.049 83.659 C 179.268 86.711,180.375 89.192,183.362 91.086 C 183.904 91.429,184.347 91.788,184.347 91.884 C 184.348 91.980,184.482 92.058,184.646 92.058 C 184.809 92.058,185.510 92.423,186.203 92.870 C 186.896 93.316,187.635 93.681,187.845 93.681 C 188.055 93.681,188.476 93.875,188.780 94.111 C 189.084 94.348,189.751 94.675,190.261 94.839 C 190.771 95.003,191.449 95.317,191.768 95.536 C 192.087 95.756,192.765 96.069,193.275 96.231 C 193.786 96.394,194.672 96.774,195.245 97.075 C 195.817 97.377,196.431 97.623,196.608 97.623 C 196.784 97.623,197.463 97.923,198.117 98.289 C 198.770 98.655,199.652 99.019,200.077 99.099 C 200.502 99.178,201.116 99.452,201.441 99.708 C 201.767 99.964,202.143 100.174,202.276 100.174 C 202.475 100.174,205.864 101.832,210.977 104.432 C 211.444 104.669,211.861 104.958,211.905 105.073 C 211.948 105.188,212.420 105.481,212.954 105.725 C 213.488 105.968,214.121 106.384,214.361 106.649 C 214.600 106.914,214.914 107.130,215.057 107.130 C 215.349 107.130,217.632 108.794,218.270 109.472 C 218.498 109.715,218.760 109.913,218.853 109.913 C 219.401 109.913,224.402 115.273,225.289 116.812 C 225.528 117.226,225.794 117.565,225.880 117.565 C 225.966 117.565,226.261 118.009,226.535 118.551 C 226.810 119.093,227.180 119.797,227.359 120.116 C 228.194 121.612,229.281 124.269,229.417 125.148 C 229.499 125.683,229.783 126.487,230.046 126.934 C 230.979 128.514,230.907 141.144,229.957 142.642 C 229.767 142.943,229.493 143.762,229.348 144.464 C 229.203 145.165,228.843 146.209,228.548 146.783 C 228.253 147.357,227.946 148.094,227.867 148.421 C 227.788 148.748,227.508 149.263,227.246 149.565 C 226.984 149.867,226.705 150.382,226.626 150.709 C 226.547 151.037,226.132 151.722,225.705 152.232 C 225.278 152.742,224.798 153.319,224.638 153.513 C 222.661 155.920,221.770 156.925,221.360 157.208 C 221.090 157.394,220.557 157.837,220.174 158.193 C 219.791 158.548,219.415 158.839,219.339 158.840 C 219.262 158.840,218.877 159.128,218.483 159.478 C 217.344 160.491,216.468 161.116,215.744 161.430 C 215.375 161.590,214.778 161.960,214.417 162.252 C 214.056 162.544,213.587 162.784,213.374 162.787 C 213.160 162.789,212.464 163.100,211.826 163.478 C 211.188 163.857,210.509 164.168,210.315 164.170 C 210.122 164.172,209.579 164.380,209.109 164.632 C 208.638 164.885,207.544 165.265,206.677 165.479 C 205.811 165.692,204.699 166.067,204.207 166.313 C 203.679 166.576,202.404 166.852,201.096 166.986 C 199.877 167.111,198.685 167.317,198.447 167.445 C 195.931 168.791,174.575 168.774,171.020 167.422 C 170.678 167.292,169.326 167.093,168.016 166.979 C 166.567 166.853,165.326 166.613,164.847 166.365 C 164.414 166.141,163.205 165.771,162.160 165.543 C 161.115 165.315,159.966 164.977,159.608 164.793 C 159.250 164.609,158.346 164.333,157.600 164.179 C 156.854 164.025,155.758 163.661,155.165 163.369 C 154.572 163.077,153.720 162.773,153.272 162.694 C 152.824 162.615,151.937 162.210,151.301 161.794 L 150.145 161.037 150.085 148.687 L 150.025 136.338 150.642 136.103 C 151.147 135.911,151.349 135.954,151.760 136.340 C 152.036 136.599,152.352 136.812,152.461 136.812 C 152.643 136.812,154.229 137.531,157.333 139.020 C 157.971 139.326,158.845 139.644,159.275 139.726 C 159.705 139.808,160.384 140.065,160.782 140.297 C 161.181 140.528,162.133 140.893,162.899 141.107 C 163.664 141.322,164.509 141.635,164.777 141.804 C 165.045 141.973,166.037 142.220,166.980 142.353 C 167.924 142.486,169.322 142.818,170.087 143.091 C 170.906 143.383,172.497 143.670,173.956 143.789 C 175.318 143.900,176.883 144.102,177.434 144.238 C 179.029 144.632,185.423 144.791,186.899 144.473 C 187.600 144.322,189.042 144.055,190.102 143.879 C 197.375 142.676,200.899 136.378,197.217 131.164 C 196.359 129.947,194.304 128.002,193.380 127.531 C 192.876 127.273,192.464 126.958,192.464 126.830 C 192.464 126.702,192.229 126.502,191.942 126.385 C 191.655 126.269,190.951 125.855,190.377 125.465 C 189.803 125.075,189.223 124.755,189.089 124.755 C 188.954 124.754,188.490 124.493,188.058 124.174 C 187.626 123.855,187.099 123.594,186.888 123.594 C 186.677 123.594,186.045 123.283,185.484 122.903 C 184.923 122.522,184.305 122.209,184.112 122.207 C 183.918 122.205,183.396 121.958,182.952 121.658 C 182.508 121.358,181.728 120.978,181.217 120.814 C 180.707 120.650,180.028 120.332,179.708 120.108 C 179.388 119.884,178.688 119.582,178.153 119.438 C 177.617 119.294,177.124 119.086,177.056 118.977 C 176.988 118.867,175.079 117.859,172.814 116.737 C 170.549 115.614,168.643 114.625,168.580 114.539 C 168.516 114.452,168.203 114.303,167.884 114.207 C 167.565 114.111,166.991 113.800,166.609 113.515 C 166.226 113.230,165.553 112.811,165.113 112.584 C 164.673 112.357,164.163 112.022,163.981 111.840 C 163.798 111.657,163.245 111.346,162.752 111.149 C 162.259 110.952,161.855 110.696,161.855 110.580 C 161.855 110.464,161.490 110.195,161.043 109.982 C 160.597 109.769,160.232 109.515,160.232 109.417 C 160.232 109.320,159.739 108.901,159.137 108.486 C 156.325 106.552,151.236 100.744,150.278 98.377 C 150.110 97.962,149.889 97.623,149.788 97.623 C 149.686 97.623,149.426 97.075,149.210 96.406 C 148.994 95.736,148.617 94.836,148.371 94.406 C 148.125 93.975,147.825 92.851,147.706 91.908 C 147.586 90.965,147.330 89.580,147.135 88.831 C 146.677 87.063,146.668 82.624,147.119 80.892 C 147.304 80.181,147.564 78.733,147.697 77.675 C 147.830 76.616,148.105 75.496,148.309 75.185 C 148.512 74.875,148.879 74.038,149.124 73.327 C 149.369 72.615,149.710 71.869,149.882 71.668 C 150.054 71.468,150.311 70.960,150.452 70.539 C 150.593 70.118,150.947 69.465,151.238 69.088 C 151.530 68.711,152.102 67.960,152.510 67.419 C 154.436 64.865,157.609 61.754,159.072 60.983 C 159.391 60.815,159.762 60.529,159.896 60.347 C 160.154 59.998,161.418 59.270,163.399 58.331 C 164.057 58.019,164.661 57.657,164.742 57.526 C 164.823 57.395,165.328 57.173,165.865 57.032 C 166.402 56.892,167.206 56.540,167.652 56.250 C 168.099 55.960,168.986 55.644,169.623 55.549 C 170.261 55.454,171.200 55.187,171.710 54.956 C 172.220 54.724,173.055 54.468,173.565 54.387 C 174.075 54.306,175.171 54.131,176.000 53.999 C 176.829 53.866,177.838 53.657,178.243 53.533 C 180.312 52.903,193.711 52.614,198.145 53.104 M281.588 53.304 C 282.179 53.795,282.179 167.654,281.588 168.146 C 280.972 168.657,251.758 168.740,250.984 168.233 L 250.435 167.873 250.435 110.732 L 250.435 53.592 250.957 53.223 C 251.686 52.708,280.963 52.785,281.588 53.304 M372.754 53.542 C 374.029 53.825,375.977 54.153,377.083 54.271 C 378.189 54.389,379.611 54.689,380.243 54.938 C 380.875 55.187,382.057 55.461,382.870 55.547 C 383.725 55.638,384.739 55.926,385.275 56.230 C 385.786 56.520,386.672 56.831,387.246 56.922 C 387.820 57.013,388.627 57.282,389.040 57.519 C 389.453 57.757,390.235 58.070,390.779 58.214 C 391.323 58.359,392.133 58.702,392.580 58.976 C 393.026 59.251,393.704 59.632,394.087 59.824 L 394.783 60.174 394.843 72.724 C 394.910 86.883,395.003 86.136,393.240 85.554 C 392.719 85.382,392.053 85.052,391.760 84.821 C 391.466 84.591,390.878 84.336,390.454 84.257 C 390.029 84.177,389.353 83.868,388.951 83.569 C 388.550 83.271,387.718 82.914,387.104 82.777 C 386.489 82.639,385.668 82.330,385.280 82.090 C 384.892 81.850,384.006 81.578,383.310 81.486 C 382.614 81.394,381.465 81.083,380.756 80.794 C 380.046 80.506,378.686 80.201,377.733 80.117 C 376.780 80.033,374.856 79.764,373.457 79.519 C 369.906 78.895,363.734 78.897,360.616 79.521 C 359.385 79.768,357.860 80.044,357.229 80.134 C 356.598 80.224,355.541 80.537,354.882 80.829 C 354.222 81.120,353.303 81.430,352.839 81.517 C 352.375 81.604,351.762 81.856,351.476 82.076 C 351.190 82.296,350.618 82.592,350.204 82.733 C 349.789 82.874,349.101 83.256,348.674 83.582 C 348.248 83.908,347.797 84.174,347.674 84.174 C 347.551 84.174,347.247 84.357,347.000 84.582 C 346.753 84.806,346.238 85.184,345.855 85.423 C 345.472 85.661,344.951 86.049,344.696 86.285 C 344.110 86.827,341.926 89.009,341.355 89.623 C 340.586 90.451,338.610 93.626,337.965 95.072 C 337.766 95.519,337.347 96.407,337.034 97.047 C 336.720 97.686,336.464 98.369,336.464 98.563 C 336.464 98.758,336.131 99.904,335.725 101.111 L 334.986 103.304 334.976 110.725 L 334.966 118.145 335.691 120.580 C 336.089 121.919,336.486 123.328,336.573 123.710 C 336.661 124.093,336.870 124.562,337.040 124.754 C 337.209 124.945,337.472 125.568,337.624 126.139 C 337.776 126.709,338.151 127.474,338.458 127.838 C 338.764 128.202,339.014 128.634,339.014 128.798 C 339.014 128.961,339.301 129.470,339.652 129.927 C 340.003 130.384,340.739 131.364,341.289 132.104 C 341.838 132.844,342.868 133.971,343.577 134.609 C 344.287 135.246,345.183 136.055,345.570 136.406 C 345.956 136.757,346.395 137.043,346.545 137.043 C 346.695 137.043,347.063 137.304,347.362 137.623 C 347.662 137.942,348.004 138.203,348.123 138.203 C 348.241 138.203,348.787 138.505,349.334 138.875 C 349.882 139.245,350.676 139.623,351.098 139.716 C 351.520 139.808,352.131 140.078,352.455 140.314 C 352.778 140.550,353.802 140.901,354.729 141.094 C 355.657 141.287,356.666 141.609,356.972 141.809 C 358.801 143.008,376.163 142.931,379.302 141.711 C 379.909 141.475,381.136 141.151,382.029 140.992 C 382.922 140.832,383.978 140.516,384.375 140.290 C 384.773 140.063,385.656 139.758,386.337 139.612 C 387.018 139.466,387.736 139.204,387.933 139.031 C 388.129 138.857,388.812 138.540,389.449 138.326 C 390.087 138.112,390.765 137.806,390.957 137.645 C 391.148 137.484,391.670 137.213,392.116 137.044 C 392.562 136.875,393.152 136.536,393.427 136.290 C 393.829 135.932,394.021 135.895,394.405 136.100 C 394.877 136.352,394.884 136.509,394.949 148.468 C 395.023 162.183,395.006 162.347,393.473 162.664 C 393.045 162.753,392.312 163.073,391.842 163.376 C 391.373 163.679,390.486 164.054,389.871 164.209 C 389.257 164.363,388.441 164.668,388.058 164.886 C 387.675 165.104,386.788 165.412,386.087 165.571 C 385.386 165.731,384.394 166.050,383.884 166.282 C 383.374 166.513,382.097 166.817,381.046 166.956 C 379.996 167.096,378.796 167.351,378.380 167.524 C 377.440 167.914,374.897 168.275,371.710 168.469 C 370.371 168.551,368.441 168.764,367.420 168.942 C 365.134 169.342,351.930 169.414,350.925 169.032 C 350.572 168.897,348.837 168.635,347.069 168.449 C 345.301 168.263,343.228 167.900,342.463 167.642 C 341.697 167.384,340.283 167.073,339.320 166.951 C 338.357 166.829,337.242 166.533,336.843 166.294 C 336.443 166.055,335.625 165.741,335.026 165.596 C 334.426 165.451,333.446 165.072,332.846 164.753 C 332.247 164.435,331.580 164.174,331.363 164.174 C 331.146 164.174,330.509 163.863,329.948 163.482 C 329.387 163.102,328.812 162.789,328.670 162.787 C 328.528 162.785,328.044 162.532,327.593 162.226 C 327.141 161.920,326.527 161.592,326.227 161.498 C 325.927 161.403,325.318 161.027,324.875 160.663 C 324.431 160.298,323.952 160.000,323.809 160.000 C 323.667 160.000,323.351 159.779,323.108 159.509 C 322.865 159.239,322.490 158.952,322.275 158.871 C 321.184 158.463,313.043 150.359,313.043 149.682 C 313.043 149.583,312.809 149.268,312.522 148.982 C 311.764 148.226,310.493 146.434,310.493 146.122 C 310.493 145.975,310.288 145.651,310.039 145.401 C 309.789 145.151,309.357 144.499,309.079 143.952 C 308.801 143.404,308.387 142.717,308.158 142.424 C 307.929 142.131,307.675 141.583,307.592 141.207 C 307.509 140.830,307.353 140.522,307.245 140.522 C 307.136 140.522,306.827 139.931,306.557 139.209 C 306.287 138.487,305.876 137.627,305.645 137.296 C 305.413 136.966,305.148 136.278,305.056 135.768 C 304.964 135.258,304.701 134.528,304.472 134.145 C 304.243 133.762,303.929 132.875,303.774 132.174 C 303.619 131.472,303.287 130.358,303.035 129.697 C 302.783 129.036,302.430 127.471,302.250 126.219 C 302.070 124.967,301.740 123.212,301.518 122.319 C 300.821 119.522,300.906 101.490,301.629 98.760 C 301.920 97.664,302.256 95.902,302.376 94.846 C 302.497 93.789,302.750 92.688,302.939 92.400 C 303.128 92.111,303.448 91.160,303.650 90.285 C 303.852 89.411,304.209 88.326,304.443 87.875 C 304.678 87.423,304.942 86.722,305.032 86.315 C 305.121 85.909,305.497 85.026,305.868 84.353 C 306.239 83.681,306.544 82.968,306.547 82.770 C 306.549 82.571,306.806 82.063,307.118 81.640 C 307.430 81.217,307.750 80.577,307.829 80.219 C 307.907 79.861,308.127 79.440,308.316 79.282 C 308.506 79.125,308.867 78.544,309.119 77.991 C 309.371 77.438,309.667 76.986,309.778 76.986 C 309.888 76.986,310.136 76.594,310.329 76.116 C 310.521 75.638,310.904 74.986,311.179 74.667 C 311.454 74.348,312.171 73.461,312.772 72.696 C 314.108 70.994,314.569 70.436,315.528 69.359 C 317.219 67.459,317.881 66.808,319.567 65.381 C 322.372 63.008,323.101 62.454,323.655 62.278 C 323.940 62.188,324.174 62.018,324.174 61.902 C 324.174 61.786,324.617 61.468,325.159 61.196 C 325.701 60.924,326.354 60.519,326.609 60.296 C 326.864 60.073,327.386 59.786,327.768 59.659 C 328.151 59.531,328.870 59.151,329.366 58.815 C 329.862 58.478,330.494 58.203,330.770 58.203 C 331.046 58.203,331.608 57.955,332.019 57.652 C 332.430 57.349,333.165 57.037,333.653 56.959 C 334.141 56.881,334.999 56.565,335.560 56.257 C 336.121 55.949,337.154 55.623,337.855 55.533 C 338.557 55.443,339.577 55.168,340.124 54.922 C 340.670 54.675,342.027 54.368,343.138 54.239 C 344.250 54.109,345.726 53.844,346.419 53.650 C 348.771 52.989,350.483 52.906,360.464 52.967 C 369.781 53.024,370.587 53.061,372.754 53.542 M72.508 76.300 C 71.895 76.403,71.262 76.596,71.101 76.730 C 70.940 76.863,70.242 77.086,69.549 77.224 C 68.217 77.490,64.680 79.113,64.217 79.670 C 64.066 79.851,63.802 80.000,63.630 80.000 C 63.458 80.000,62.975 80.314,62.557 80.698 C 60.748 82.360,58.502 84.606,57.911 85.345 C 56.717 86.837,55.652 88.428,55.652 88.719 C 55.652 88.878,55.405 89.303,55.102 89.663 C 54.800 90.024,54.478 90.661,54.387 91.079 C 54.296 91.497,53.977 92.279,53.679 92.818 C 52.884 94.253,52.715 95.445,53.226 96.009 C 53.718 96.553,96.796 96.737,98.912 96.204 C 99.940 95.945,100.243 95.466,99.713 94.937 C 99.588 94.811,99.282 93.917,99.035 92.951 C 98.788 91.985,98.370 90.791,98.105 90.297 C 97.840 89.802,97.621 89.240,97.619 89.047 C 97.617 88.854,97.304 88.236,96.923 87.675 C 96.543 87.114,96.232 86.532,96.232 86.382 C 96.232 86.232,95.971 85.865,95.652 85.565 C 95.333 85.266,95.072 84.898,95.072 84.748 C 95.072 84.379,90.842 80.000,90.486 80.000 C 90.330 80.000,90.018 79.817,89.791 79.594 C 89.151 78.964,86.040 77.490,84.763 77.212 C 84.131 77.074,83.493 76.862,83.345 76.739 C 82.642 76.156,75.169 75.853,72.508 76.300 " stroke="none" fill="#fbfbfc" fill-rule="evenodd"></path></g></svg>