<svg id="svg" version="1.1" xmlns="http://www.w3.org/2000/svg" xmlns:xlink="http://www.w3.org/1999/xlink" width="400" height="400" viewBox="0, 0, 400,400"><g id="svgg"><path id="path0" d="M113.348 75.494 C 112.904 75.792,112.454 76.355,112.299 76.808 C 111.902 77.960,111.902 322.040,112.299 323.192 C 112.454 323.645,112.904 324.208,113.348 324.506 L 114.125 325.029 200.000 325.029 L 285.875 325.029 286.652 324.506 C 287.096 324.208,287.546 323.645,287.701 323.192 C 288.098 322.040,288.098 77.960,287.701 76.808 C 287.546 76.355,287.096 75.792,286.652 75.494 L 285.875 74.971 200.000 74.971 L 114.125 74.971 113.348 75.494 M181.092 114.144 C 183.633 114.905,186.697 116.439,188.716 117.962 C 191.219 119.851,191.222 119.983,188.803 122.337 C 186.709 124.376,186.698 124.379,185.319 123.326 C 173.931 114.630,158.286 121.833,158.286 135.771 C 158.286 149.376,172.854 156.551,184.552 148.707 C 186.626 147.317,186.816 147.342,188.891 149.280 C 190.959 151.211,191.036 151.567,189.657 152.836 C 182.558 159.370,170.321 160.229,161.616 154.804 C 144.012 143.831,149.122 117.993,169.743 113.713 C 172.415 113.158,178.579 113.392,181.092 114.144 M232.040 114.014 C 249.189 118.633,255.225 138.699,243.216 151.167 C 232.017 162.794,211.967 159.940,204.909 145.715 C 198.181 132.155,206.932 115.945,222.286 113.523 C 224.104 113.236,230.311 113.549,232.040 114.014 M223.886 119.478 C 210.172 121.374,204.388 137.511,213.943 147.216 C 224.016 157.446,241.988 151.075,242.903 136.950 C 243.560 126.813,234.047 118.072,223.886 119.478 M247.298 176.563 C 249.021 177.454,249.738 179.798,248.741 181.277 C 248.173 182.120,208.543 220.068,207.684 220.592 C 205.014 222.220,201.810 219.271,203.149 216.417 C 203.574 215.510,243.317 177.237,244.498 176.596 C 245.322 176.150,246.473 176.136,247.298 176.563 M174.400 177.214 C 197.516 182.854,198.211 213.645,175.362 219.832 C 172.411 220.631,154.389 220.943,153.578 220.209 C 152.955 219.645,152.890 178.063,153.511 177.176 L 153.879 176.651 163.397 176.751 C 171.049 176.832,173.206 176.923,174.400 177.214 M159.771 198.629 L 159.771 214.629 164.971 214.627 C 173.276 214.624,176.352 213.768,180.030 210.437 C 186.493 204.583,186.547 192.677,180.136 186.919 C 176.383 183.548,173.124 182.641,164.743 182.633 L 159.771 182.629 159.771 198.629 M156.072 241.807 C 156.284 241.921,162.731 249.009,170.400 257.558 L 184.343 273.102 184.457 257.980 C 184.520 249.662,184.655 242.729,184.756 242.571 C 185.053 242.113,190.258 242.177,190.727 242.645 C 191.200 243.119,191.283 285.882,190.811 286.354 C 190.661 286.505,190.007 286.629,189.359 286.629 C 187.901 286.629,189.500 288.314,172.911 269.290 L 159.886 254.352 159.831 269.862 C 159.766 288.140,160.176 286.171,156.432 286.171 C 152.725 286.171,153.143 289.010,153.143 263.847 C 153.143 239.844,153.013 241.600,154.793 241.600 C 155.285 241.600,155.860 241.693,156.072 241.807 M233.755 241.844 C 237.346 242.335,241.585 244.132,244.747 246.504 C 246.909 248.124,246.895 248.324,244.461 250.742 C 242.226 252.962,242.823 252.953,239.646 250.811 C 228.314 243.169,213.287 251.438,214.015 264.914 C 214.655 276.772,227.389 283.752,239.029 278.625 L 240.000 278.197 240.000 274.641 L 240.000 271.086 236.503 271.086 C 232.254 271.086,232.457 271.231,232.457 268.196 C 232.457 264.936,231.965 265.143,239.708 265.143 C 247.796 265.143,246.857 263.994,246.857 273.892 C 246.857 282.943,247.012 282.309,244.514 283.493 C 226.214 292.166,206.765 282.240,206.765 264.229 C 206.765 250.182,219.215 239.856,233.755 241.844 " stroke="none" fill="#fbfbfb" fill-rule="evenodd"></path><path id="path1" d="M0.000 200.000 L 0.000 400.000 200.000 400.000 L 400.000 400.000 400.000 200.000 L 400.000 0.000 200.000 0.000 L 0.000 0.000 0.000 200.000 M286.328 75.187 C 286.901 75.447,287.427 75.899,287.642 76.314 C 288.167 77.329,288.194 322.620,287.669 323.635 C 286.805 325.305,296.199 325.136,200.457 325.205 C 105.430 325.274,113.414 325.401,112.439 323.802 C 111.820 322.788,111.740 77.508,112.358 76.314 C 112.573 75.899,113.099 75.447,113.672 75.187 C 115.174 74.505,284.826 74.505,286.328 75.187 M170.477 113.724 C 152.597 116.509,144.807 137.577,156.803 150.702 C 164.879 159.539,179.538 160.822,188.686 153.492 C 191.027 151.616,191.028 151.613,189.011 149.580 C 186.836 147.386,186.719 147.362,184.771 148.704 C 169.983 158.890,152.100 144.158,159.922 128.234 C 164.317 119.286,175.655 116.723,184.538 122.669 C 186.848 124.215,186.792 124.223,188.875 122.083 C 191.121 119.775,191.129 119.841,188.343 117.825 C 183.264 114.150,176.989 112.710,170.477 113.724 M222.534 113.624 C 205.451 116.116,196.992 135.402,207.040 148.948 C 217.427 162.950,239.808 160.805,247.321 145.088 C 254.951 129.128,240.654 110.981,222.534 113.624 M230.078 119.771 C 240.534 122.414,245.989 133.625,241.367 142.971 C 235.126 155.593,216.648 155.456,210.602 142.743 C 204.712 130.358,216.580 116.360,230.078 119.771 M244.429 176.751 C 243.579 177.238,203.497 215.783,203.229 216.371 C 202.002 219.063,204.998 221.950,207.566 220.552 C 208.683 219.943,248.664 181.421,248.910 180.715 C 249.859 177.991,246.875 175.351,244.429 176.751 M153.657 177.176 C 153.175 177.660,153.247 219.728,153.731 220.212 C 154.166 220.648,167.685 220.740,171.639 220.334 C 196.419 217.791,199.510 184.976,175.657 177.674 L 173.600 177.044 163.771 176.967 C 156.109 176.906,153.880 176.952,153.657 177.176 M173.029 183.097 C 189.143 186.953,189.227 209.979,173.143 214.194 C 171.605 214.597,170.398 214.692,165.543 214.796 L 159.771 214.919 159.771 198.774 L 159.771 182.629 165.429 182.630 C 170.324 182.632,171.347 182.694,173.029 183.097 M153.879 241.956 L 153.371 242.312 153.371 263.853 C 153.371 280.303,153.436 285.459,153.646 285.669 C 154.104 286.127,158.950 286.039,159.343 285.565 C 159.600 285.256,159.678 282.361,159.771 269.678 L 159.886 254.169 173.486 269.753 C 189.592 288.208,188.104 286.629,189.384 286.629 C 191.223 286.629,191.100 288.294,191.032 264.245 C 190.961 239.376,191.413 242.286,187.626 242.286 C 184.101 242.286,184.457 240.494,184.457 258.236 C 184.457 268.211,184.381 273.123,184.227 273.027 C 184.100 272.949,177.763 265.942,170.143 257.456 C 162.524 248.969,156.038 241.930,155.730 241.813 C 154.936 241.511,154.462 241.548,153.879 241.956 M227.740 241.841 C 208.677 243.709,199.957 265.931,213.003 279.396 C 219.846 286.459,230.055 288.435,240.938 284.802 C 243.190 284.050,245.784 282.869,246.286 282.367 C 246.741 281.912,246.806 266.097,246.354 265.646 C 245.963 265.254,233.351 265.254,232.960 265.646 C 232.783 265.823,232.686 266.738,232.686 268.229 C 232.686 271.226,232.487 271.086,236.731 271.086 L 240.229 271.086 240.229 274.687 L 240.229 278.288 238.914 278.797 C 226.167 283.731,213.915 276.476,213.896 263.983 C 213.877 250.555,228.738 243.242,240.180 251.050 C 242.538 252.659,242.298 252.686,244.405 250.566 C 246.786 248.172,246.739 247.910,243.543 245.778 C 238.920 242.693,233.307 241.295,227.740 241.841 " stroke="none" fill="#047ca4" fill-rule="evenodd"></path><path id="path2" d="M157.200 74.914 C 180.740 74.946,219.260 74.946,242.800 74.914 C 266.340 74.882,247.080 74.856,200.000 74.856 C 152.920 74.856,133.660 74.882,157.200 74.914 M173.314 119.472 C 173.534 119.529,173.894 119.529,174.114 119.472 C 174.334 119.414,174.154 119.367,173.714 119.367 C 173.274 119.367,173.094 119.414,173.314 119.472 M237.486 123.729 C 237.486 123.768,237.820 124.102,238.229 124.472 L 238.971 125.143 238.300 124.400 C 237.674 123.708,237.486 123.552,237.486 123.729 M150.932 135.886 C 150.933 136.766,150.974 137.098,151.024 136.623 C 151.073 136.149,151.073 135.429,151.022 135.023 C 150.972 134.618,150.931 135.006,150.932 135.886 M208.977 136.000 C 208.977 136.566,209.021 136.797,209.076 136.514 C 209.130 136.231,209.130 135.769,209.076 135.486 C 209.021 135.203,208.977 135.434,208.977 136.000 M238.043 147.486 L 237.371 148.229 238.114 147.557 C 238.807 146.931,238.962 146.743,238.786 146.743 C 238.746 146.743,238.412 147.077,238.043 147.486 M174.117 152.162 C 174.401 152.216,174.813 152.214,175.031 152.157 C 175.250 152.100,175.017 152.055,174.514 152.058 C 174.011 152.060,173.833 152.107,174.117 152.162 M158.114 176.857 C 160.409 176.894,164.163 176.894,166.457 176.857 C 168.751 176.820,166.874 176.789,162.286 176.789 C 157.697 176.789,155.820 176.820,158.114 176.857 M153.252 198.629 C 153.252 210.131,153.280 214.837,153.314 209.086 C 153.348 203.334,153.348 193.923,153.314 188.171 C 153.280 182.420,153.252 187.126,153.252 198.629 M240.100 180.629 L 239.429 181.371 240.171 180.700 C 240.864 180.074,241.019 179.886,240.843 179.886 C 240.803 179.886,240.469 180.220,240.100 180.629 M245.128 184.743 L 244.457 185.486 245.200 184.814 C 245.892 184.189,246.048 184.000,245.871 184.000 C 245.832 184.000,245.498 184.334,245.128 184.743 M234.614 185.886 L 233.943 186.629 234.686 185.957 C 235.378 185.331,235.534 185.143,235.357 185.143 C 235.318 185.143,234.983 185.477,234.614 185.886 M239.643 190.000 L 238.971 190.743 239.714 190.072 C 240.407 189.446,240.562 189.257,240.386 189.257 C 240.346 189.257,240.012 189.591,239.643 190.000 M229.128 191.143 L 228.457 191.886 229.200 191.214 C 229.609 190.845,229.943 190.511,229.943 190.472 C 229.943 190.295,229.754 190.450,229.128 191.143 M234.157 195.257 L 233.486 196.000 234.229 195.329 C 234.921 194.703,235.076 194.514,234.900 194.514 C 234.861 194.514,234.526 194.849,234.157 195.257 M223.643 196.400 L 222.971 197.143 223.714 196.472 C 224.123 196.102,224.457 195.768,224.457 195.729 C 224.457 195.552,224.269 195.708,223.643 196.400 M228.671 200.514 L 228.000 201.257 228.743 200.586 C 229.151 200.217,229.486 199.882,229.486 199.843 C 229.486 199.666,229.297 199.822,228.671 200.514 M218.157 201.657 L 217.486 202.400 218.229 201.729 C 218.637 201.359,218.971 201.025,218.971 200.986 C 218.971 200.809,218.783 200.965,218.157 201.657 M223.186 205.771 L 222.514 206.514 223.257 205.843 C 223.666 205.474,224.000 205.139,224.000 205.100 C 224.000 204.924,223.811 205.079,223.186 205.771 M212.671 206.914 L 212.000 207.657 212.743 206.986 C 213.151 206.617,213.486 206.282,213.486 206.243 C 213.486 206.066,213.297 206.222,212.671 206.914 M217.700 211.029 L 217.029 211.771 217.771 211.100 C 218.180 210.731,218.514 210.397,218.514 210.357 C 218.514 210.181,218.326 210.336,217.700 211.029 M207.186 212.171 L 206.514 212.914 207.257 212.243 C 207.666 211.874,208.000 211.539,208.000 211.500 C 208.000 211.324,207.811 211.479,207.186 212.171 M185.588 213.886 L 184.800 214.743 185.657 213.955 C 186.129 213.522,186.514 213.136,186.514 213.098 C 186.514 212.923,186.321 213.088,185.588 213.886 M162.127 214.799 C 163.485 214.840,165.645 214.840,166.927 214.799 C 168.208 214.758,167.097 214.725,164.457 214.725 C 161.817 214.726,160.768 214.759,162.127 214.799 M212.214 216.286 L 211.543 217.029 212.286 216.357 C 212.694 215.988,213.029 215.654,213.029 215.614 C 213.029 215.438,212.840 215.593,212.214 216.286 M153.253 263.771 C 153.253 275.526,153.280 280.334,153.314 274.457 C 153.348 268.580,153.348 258.963,153.314 253.086 C 153.280 247.209,153.253 252.017,153.253 263.771 M244.343 250.629 C 243.406 251.571,242.691 252.343,242.754 252.343 C 242.817 252.343,243.635 251.571,244.571 250.629 C 245.508 249.686,246.223 248.914,246.160 248.914 C 246.097 248.914,245.279 249.686,244.343 250.629 M206.705 264.229 C 206.705 265.171,206.746 265.557,206.795 265.086 C 206.844 264.614,206.844 263.843,206.795 263.371 C 206.746 262.900,206.705 263.286,206.705 264.229 M232.541 268.229 C 232.541 269.486,232.580 269.971,232.626 269.307 C 232.672 268.642,232.672 267.614,232.625 267.021 C 232.578 266.428,232.540 266.971,232.541 268.229 M246.731 273.943 C 246.731 278.217,246.762 279.933,246.800 277.757 C 246.837 275.580,246.837 272.083,246.800 269.985 C 246.762 267.888,246.731 269.669,246.731 273.943 M213.143 279.771 C 213.634 280.274,214.087 280.686,214.150 280.686 C 214.213 280.686,213.862 280.274,213.371 279.771 C 212.880 279.269,212.427 278.857,212.364 278.857 C 212.302 278.857,212.652 279.269,213.143 279.771 M157.200 325.200 C 180.740 325.232,219.260 325.232,242.800 325.200 C 266.340 325.168,247.080 325.142,200.000 325.142 C 152.920 325.142,133.660 325.168,157.200 325.200 " stroke="none" fill="#469dbd" fill-rule="evenodd"></path><path id="path3" d="M189.021 122.000 L 187.771 123.314 189.086 122.065 C 190.307 120.904,190.505 120.686,190.335 120.686 C 190.299 120.686,189.708 121.277,189.021 122.000 M202.585 135.886 C 202.586 136.640,202.629 136.921,202.680 136.510 C 202.731 136.099,202.730 135.482,202.678 135.139 C 202.625 134.795,202.584 135.131,202.585 135.886 M249.429 135.886 C 249.432 136.389,249.478 136.567,249.533 136.283 C 249.588 135.999,249.586 135.587,249.528 135.369 C 249.471 135.150,249.427 135.383,249.429 135.886 M209.029 151.543 C 209.520 152.046,209.973 152.457,210.036 152.457 C 210.098 152.457,209.748 152.046,209.257 151.543 C 208.766 151.040,208.313 150.629,208.250 150.629 C 208.187 150.629,208.538 151.040,209.029 151.543 M225.429 152.392 C 225.774 152.445,226.340 152.445,226.686 152.392 C 227.031 152.340,226.749 152.297,226.057 152.297 C 225.366 152.297,225.083 152.340,225.429 152.392 M242.843 177.886 L 242.171 178.629 242.914 177.957 C 243.607 177.331,243.762 177.143,243.586 177.143 C 243.546 177.143,243.212 177.477,242.843 177.886 M237.357 183.143 L 236.686 183.886 237.429 183.214 C 238.121 182.589,238.276 182.400,238.100 182.400 C 238.061 182.400,237.726 182.734,237.357 183.143 M242.614 187.257 L 241.943 188.000 242.686 187.329 C 243.378 186.703,243.534 186.514,243.357 186.514 C 243.318 186.514,242.983 186.849,242.614 187.257 M231.871 188.400 L 231.200 189.143 231.943 188.472 C 232.351 188.102,232.686 187.768,232.686 187.729 C 232.686 187.552,232.497 187.708,231.871 188.400 M237.128 192.514 L 236.457 193.257 237.200 192.586 C 237.892 191.960,238.048 191.771,237.871 191.771 C 237.832 191.771,237.498 192.106,237.128 192.514 M226.273 193.771 L 225.486 194.629 226.343 193.841 C 227.141 193.108,227.305 192.914,227.131 192.914 C 227.092 192.914,226.707 193.300,226.273 193.771 M231.643 197.771 L 230.971 198.514 231.714 197.843 C 232.123 197.474,232.457 197.139,232.457 197.100 C 232.457 196.924,232.269 197.079,231.643 197.771 M184.987 198.629 C 184.987 199.446,185.029 199.780,185.080 199.371 C 185.130 198.963,185.130 198.294,185.080 197.886 C 185.029 197.477,184.987 197.811,184.987 198.629 M220.671 199.143 L 220.000 199.886 220.743 199.214 C 221.151 198.845,221.486 198.511,221.486 198.472 C 221.486 198.295,221.297 198.450,220.671 199.143 M226.157 203.029 L 225.486 203.771 226.229 203.100 C 226.921 202.474,227.076 202.286,226.900 202.286 C 226.861 202.286,226.526 202.620,226.157 203.029 M215.186 204.400 L 214.514 205.143 215.257 204.472 C 215.666 204.102,216.000 203.768,216.000 203.729 C 216.000 203.552,215.811 203.708,215.186 204.400 M220.671 208.286 L 220.000 209.029 220.743 208.357 C 221.151 207.988,221.486 207.654,221.486 207.614 C 221.486 207.438,221.297 207.593,220.671 208.286 M209.700 209.657 L 209.029 210.400 209.771 209.729 C 210.180 209.359,210.514 209.025,210.514 208.986 C 210.514 208.809,210.326 208.965,209.700 209.657 M214.957 213.771 L 214.286 214.514 215.029 213.843 C 215.437 213.474,215.771 213.139,215.771 213.100 C 215.771 212.924,215.583 213.079,214.957 213.771 M204.102 215.029 L 203.314 215.886 204.171 215.098 C 204.969 214.365,205.134 214.171,204.959 214.171 C 204.921 214.171,204.535 214.557,204.102 215.029 M209.471 219.029 L 208.800 219.771 209.543 219.100 C 209.951 218.731,210.286 218.397,210.286 218.357 C 210.286 218.181,210.097 218.336,209.471 219.029 M236.528 265.314 C 238.327 265.353,241.207 265.352,242.928 265.314 C 244.649 265.275,243.177 265.243,239.657 265.243 C 236.137 265.243,234.729 265.275,236.528 265.314 M239.999 274.789 C 239.937 276.763,239.966 278.298,240.063 278.200 C 240.161 278.102,240.212 276.487,240.177 274.611 L 240.113 271.200 239.999 274.789 M229.771 280.392 C 230.117 280.445,230.683 280.445,231.029 280.392 C 231.374 280.340,231.091 280.297,230.400 280.297 C 229.709 280.297,229.426 280.340,229.771 280.392 M155.265 286.112 C 155.993 286.158,157.124 286.157,157.780 286.111 C 158.435 286.065,157.840 286.028,156.457 286.028 C 155.074 286.029,154.538 286.067,155.265 286.112 " stroke="none" fill="#84bcd4" fill-rule="evenodd"></path><path id="path4" d="M157.357 120.286 L 156.686 121.029 157.429 120.357 C 157.837 119.988,158.171 119.654,158.171 119.614 C 158.171 119.438,157.983 119.593,157.357 120.286 M241.471 179.257 L 240.800 180.000 241.543 179.329 C 242.235 178.703,242.391 178.514,242.214 178.514 C 242.175 178.514,241.841 178.849,241.471 179.257 M235.986 184.514 L 235.314 185.257 236.057 184.586 C 236.750 183.960,236.905 183.771,236.728 183.771 C 236.689 183.771,236.355 184.106,235.986 184.514 M230.500 189.771 L 229.829 190.514 230.571 189.843 C 230.980 189.474,231.314 189.139,231.314 189.100 C 231.314 188.924,231.126 189.079,230.500 189.771 M216.328 212.400 L 215.657 213.143 216.400 212.472 C 216.809 212.102,217.143 211.768,217.143 211.729 C 217.143 211.552,216.954 211.708,216.328 212.400 M210.843 217.657 L 210.171 218.400 210.914 217.729 C 211.323 217.359,211.657 217.025,211.657 216.986 C 211.657 216.809,211.469 216.965,210.843 217.657 " stroke="none" fill="#74b4cc" fill-rule="evenodd"></path></g></svg>